<?xml version="1.0" encoding="UTF-8"?><svg xmlns="http://www.w3.org/2000/svg" viewBox="0 0 182.7 175.29"><defs><style>.d{fill:#ef4b5e;}</style></defs><g id="a"/><g id="b"><g id="c"><path class="d" d="M177.77,86.49s-.03-.07-.04-.11l.18-.02s-.09,.08-.14,.12m-2.17-6.87c.08-1.04,.11-1.25-.38-2.46l-.6,.6c-.17-.04-.29-.08-.39-.12-.09-.17-.18-.34-.27-.51,.17-.5,.94-1.17,.09-1.9-.26-.17-.5-.31-.74-.41,.95-.29,2.13,.84,3.01,3.44-.11,.73,.01,1.43,.23,2.1l-1.02,.2c.01-.31,.03-.56,.04-.78,.03-.03,.05-.05,.09-.08-.03-.02-.05-.05-.07-.08m-.98,6.22l-.63-.57c-.08,.06-.13,.12-.17,.18-.11-.17-.19-.34-.23-.51,.13-.22,.34-.35,.76-.21-.1-.33-.41-.61-.79-.69,.02-.14,.05-.28,.08-.43,.4,0,.86,.05,1.19,.12-.09,.67-.1,1.18-.21,2.1m-.05,.41c-.05-.04-.09-.08-.13-.12,.04-.05,.08-.08,.16-.1,0,.07-.01,.13-.02,.21m2.39-4.86c-.32-.25-.77-.41-.37-.96,.11,.33,.23,.65,.37,.96m-5.07,30.89c-.71-.37-1.4-.69-1.16-1.47,.45-.39,.99-.22,1.55,.07-.08,.53-.22,.99-.39,1.4m-5.5-40.98s0-.06,0-.09c0,.02,.01,.05,.02,.07,0,0-.01,.01-.02,.02m-1.01-.54l-.07-.28c.15-.22,.29-.47,.42-.74,.29,.26,.47,.78,.63,1.36-.33-.08-.66-.21-.98-.34m.12,.45s.04,.01,.07,.03c.09,.15,.08,.27,.04,.38l-.1-.41Zm-1.66,1.39c-.02-.16-.04-.31-.06-.47,.02-.14,0-.3-.01-.47,.07-.04,.11-.09,.13-.14,.43,.59,1.03,.49,1.51,.53-.48,.27-1.02,.46-1.56,.54m-.17,46.43c-.34-.07-.78-.29-.92-.71,.05-.47-.06-1,.2-1.25,.37,.37,.34,.73,.33,.97,0,0,.67-.48,1.17-.07,.01,.07,.02,.13,.02,.2-.21,.34-.49,.61-.8,.86m-.36,.29l-.03-.03c-.03-.25,.13-.23,.3-.18-.09,.07-.18,.14-.27,.21m-.7-67.03c.07-.01,.14-.02,.21-.02-.09,.05-.18,.09-.26,.11,.03-.03,.04-.06,.06-.09m-.22,53.33s-.18-.08-.24-.17c.02,.18,.02,.37,.03,.56-.07-.26-.18-.51-.38-.76,.11-.15,.21-.24,.31-.29,.43,.17,.24,.45,.28,.67m-.72,18.53c-.05-.04-.11-.08-.18-.1,.04,.05,.09,.09,.15,.14-.05,.08-.1,.16-.15,.24l-.22-.37c.07-.04,.14-.03,.21,0-.51-.58,.39-1.38,.23-2.2-1-.29-.25,.7-.47,1.02-.26,.03-.88,.57-1.48,.03,.24-.82-.56-1.69-.48-2.57,.23,.08,.41,.26,.41,.93,.43,.37,.74-.17,1.07-.69,.11-.18,.23-.35,.36-.49,.01,.32-.31,.57,.57,.9l.28-.03c-.09,.25-.17,.52-.21,.84,.6,.81,.34,1.58-.13,2.36m-.42,.66c-.14,.2-.27,.4-.41,.6-.13-.41,.28-.78,.47-1.06l.16,.12c-.07,.11-.15,.23-.22,.34m-2.47,4.09c-.3-.95-.64-1.95-.58-2.78,1.1,.49,1.21,1.27,1.53,1.94-.31-.05-.64,.45-.96,.85m.23-8.64l-.05,.03s-.03-.03-.05-.05c.03,0,.07,.02,.1,.02m2.69-.51c.14,.25,.2,.45-.31,.5-.03-.11-.07-.2-.12-.29,.12-.11,.26-.19,.42-.21m2.48-64.86c0,.42,0,.85,0,1.29l-.19-.02c-.18-.37,0-.84,.18-1.27m.56,4.01h-.02v-.03s.01,.02,.02,.03m.76,10.71c-.08,.15-.19,.31-.3,.46l-.13-.48c.16-.04,.3-.02,.42,.02m-8.7,60.65c-.34-.15-.79-.22-.73-.46,.49-.69,.69-.43,.98-.32-.09,.23-.17,.5-.25,.78m-4.64-84.64c.09,.1,.18,.21,.28,.33-.42,.17-.39-.07-.28-.33m2.48,.89c-1.45,1.02-1.56,.12-2.37,.05,.11-.17,.22-.28,.34-.39,.05,.06,.09,.11,.14,.18,.05-.09,.05-.21,.05-.33,.59-.35,1.3-.2,1.92-.44-.22-.1-.94,.22-.77-.29l1.11-.73c-1.04-.18-1.06,.53-2.19,1.16-.04,.02-.06,.04-.1,.05-.04-.22-.14-.47-.27-.74h.19c.04-.34-.15-.4-.4-.4-.09-.16-.18-.33-.28-.5,0,0,0-.02-.01-.02,.33,.23,1.94-.81,1.69-.23,.2-.77,.78-1.15,1.45-1.38-.17,.21-.16,.57-.46,.48,.27,.2,.54,.4,.81,.6-.67,1.37,2.4,.18,.86,2.19-.4,0-.57,.51-.98,.51-.04-.21,.03-.31,.28-.51-.62,.31-1.3,.42-1.02,.72m-2.79-2.6l.19-.24c-.09,.2-.11,.32-.09,.4-.03-.05-.07-.1-.1-.16m-5.47,98.75c-.41-.24,.06-.61,.33-1.02,.22-.06,.46-.15,.71-.2-.4,.4-.81,.81-1.04,1.23m-13.18-71.06h-15.63v11.39h15.09v6.47h-6.25c-.07,.05-.1,.12-.19,.16-.03-.06-.08-.1-.11-.16h-8.54v20.62h-6.88v-44.95h22.51v6.46Zm-23.35-41.78c-.07-.08-.14-.16-.21-.24,.05-.42-.24-.37,.15-.82,.01,.29,.18,.59,.12,.93-.02,.04-.04,.09-.06,.13m-.08,.14c-.09-.07-.18-.13-.27-.2,.04-.02,.08-.05,.12-.07,0-.02,0-.03,0-.04,.05,.09,.11,.17,.22,.17-.03,.05-.05,.09-.08,.13m-3.64,39.82c-.07,.07-.11,.12-.16,.19l-.47-.6,.1-.09c.42-.11,.85-.2,1.27-.28,.14,.5,.35,1,.23,1.34-.43-.08-.76-.26-.96-.56m.67,1.51s.02-.05,.03-.07v.03s-.02,.03-.03,.04m-.69,.71c-.58,.13-1.11,.32-1.62,.54-.08-.06-.16-.13-.24-.22,.04-1.82,1.5-.39,2.24-.71-.11,.12-.23,.24-.39,.38m-1.05,36.38c.02-.14,.03-.29,.06-.42,.06,.14,.11,.29,.15,.44-.07,0-.14,0-.21-.02m-21.56-10.1c.03-.19,.13-.36,.13-.54,.35,.07,.69,.26,.72,.49-.34-.11-.57-.01-.85,.05m1.79-.08c.1,.13,.23,.25,.4,.37-.49,.8-1.04,.04-2.04,.25-.13-.19-.16-.34-.16-.47,.67,.54,1.22,.17,1.8-.14m-5.52,.73s.07-.09,.11-.13c.78,.11,1.76-1.13,2.18-.31-.36,.3-1.43,.54-.99,.83,.75-.29,1.57-.91,2.21-1.54-.12,.65,.23,1.41,.91,1.79,.08,.38-.66,.61-1.29,.86-.21-.1-.41-.2-.6-.28-.74,.31-1.77,.42-2.7,.27,.02-.48,.07-.96,.18-1.42,0-.01-.01-.04-.02-.05m-17.96-8.15c0,.1,0,.19,0,.28-.04,0-.07-.02-.1-.03-.01-.04-.03-.08-.05-.12,.02-.04,.06-.08,.12-.14,0,0,.02,0,.03,0m-.14-.6s.09,.01,.15,.07h0s-.1-.05-.15-.07m1.46-2.78s-.01,.03-.02,.05c0-.01,0-.03,0-.04h.03m19.86-1.22s-.07,.02-.11,.02c.02-.03,.04-.05,.06-.08,.02,.02,.03,.04,.05,.06m12.37,.85c0,7.69-2.29,13.96-6.67,18.2-4.65,4.52-10.18,5.72-15.3,5.72-6.54,0-11.19-1.88-15.3-6.13-4.38-4.51-6.67-10.5-6.67-16.98,0-7.01,2.83-13.07,6.54-16.78,3.84-3.91,9.97-6.74,16.91-6.74,4.04,0,8.22,.87,11.72,2.83,3.71,2.09,6,4.72,7.28,6.74l-5.46,3.84c-1.35-1.89-3.37-3.91-5.52-5.12-2.49-1.48-5.19-1.95-7.95-1.95-5.86,0-9.64,2.42-11.86,4.65-2.96,2.96-4.78,7.75-4.78,12.6,0,4.51,1.68,9.03,4.65,12.2,3.1,3.31,6.94,4.51,11.26,4.51,3.91,0,7.14-1.15,10.04-3.96,2.49-2.43,3.51-5.06,3.77-7.62h-2.81c.06,.14,.13,.27,.06,.37-.57,.1-.66-.12-.76-.37h-.5c-.08,.04-.16,.08-.19,.16-.64,.14-1.52,.6-2.2,.27-.54-.08-.66-.25-.69-.43h-4.1v-6.33h6.36c-.01-.08-.03-.17-.04-.26,.02,.05,.05,.1,.06,.16l.25-.34c.1,.01,.18,.03,.24,.05,.08,.12,.12,.24,.1,.38h11.55v.33Zm-9.24,20.28c.11-.21,.59-.39,.87-.67,.21,.08,.42,.21,.58,.28l-1.15,.71c-.08-.2-.18-.29-.3-.32m.33,4.58v.02s-.03,0-.04,0c-.07,.01-.13,.06-.21,.07-.11-.04-.21-.08-.31-.12,.21,0,.39,.02,.52,.05,.02,0,.03-.01,.04-.01l-.22-.69c.37,.13,.89,.08,1.27,.21,.38-.45-.68-.67-.27-1.06,.8,.18-.14,.79,1.03,.88,.06-.38-.89-.65-.51-1.03,.39-.03,.59,.02,.71,.11-.04,0-.07,0-.1-.01,.2,.27,.38,.53,.53,.79-.76,.35-1.57,.63-2.43,.79m2.05,38.1c-1.4,.98-1.98,.34-3.21,.8-.05,.07-.08,.14-.11,.21-1.03-.12-2.03-.29-2.99-.53-.03-.07-.06-.14-.09-.21,.59-.09,1.17-.19,1.75-.32-.55,.12-1.21,.11-1.88,.01-.23-.64-.2-.99,1.22-.07,.23-.14,.12-.49-.16-.93,.17-.1,.37-.33,.63-.79-.15,0-.25-.64-.17-1.13,.08,0,.16,.01,.23,0,.2,.31,.55,.41,.4,.95l-.26,.18c.51,.33,.83,.54,1.08,.35,.16-.37,.26-.71,.35-1.02,.21-.03,.41-.05,.68,.01-.23,.62-.85,1.31-.52,1.9l1.14-.69,.03,.83c.62,.55,1.34,.22,2.1-.21-.08,.19-.16,.39-.21,.63m-17.19-109.85c.16-.05,.34-.1,.54-.14-.05-.04-.11-.08-.17-.13,.07-.03,.15-.05,.23-.07l.03,.36,1.03-.24c-.12,.02-.18,.11-.2,.21-.47,0-1,.11-1.63,.45,.03-.2,.1-.34,.18-.45m3.55-.35c.14,.48,.33,.96,.55,1.41-.82-.38-1.51-.96-2.44-1.05,.56-.37,1.22-.39,1.89-.36m1.99-.27c.18,.29,.39,.56,.63,.81,.02,.05,.05,.09,.07,.14,0,1.11-.38,.95-.88,.81-.14-.2-.41-.36-1.23-.4-.19-.41-.25-.76-.3-1.08,.62,.02,1.22,.02,1.7-.28m17.24,9.21c-.14,.34-.15,.6-.09,.81-.22,.12-.44,.23-.65,.33-.03-.08-.07-.15-.09-.25l.83-.89Zm-48.4,88.91s-.02-.04-.02-.06h.01s0,0-.01,0c-.05-.14-.09-.27-.14-.41,.01,0,.03,0,.04,.02l.55-.71s.02,.02,.03,.03c-.07,.25,.03,.29,.19,.23,.06,.1,.12,.21,.16,.35-.28,.18-.55,.35-.83,.55m-1.14-32.45s-.06-.05-.09-.08l.3-.13c-.11,.08-.17,.15-.21,.21m-.71,25.85c-.22,.09-.48,.2-.87,.34,.23,.07,.41,.21,.55,.37-.19,.42-.37,.83-.56,1.24,.17-.13,.34-.27,.5-.41-.07,.13-.13,.3-.2,.46-.28-.12-.32,.04-.23,.32-.16-.04-.32-.1-.49-.08-.71,.54,.73,.23-.17,.86-.74,.32-.23-.27-.54-.32,.13,.51,.29,1.02,.44,1.53-.03,.05-.06,.1-.09,.16-.04,.02-.08,.03-.12,.04-.32-.85-.62-1.6-.88-1.59,.3-.65,.58-1.31,.82-2.04,.05,0,.09-.03,.14-.03-.32,.35-.06,.5,.21,.58,0,.02,0,.04-.01,.06,.04,0,.07-.03,.1-.04,.07,.02,.13,.03,.19,.04-.07,0-.12-.02-.16-.05,.31-.2,.03-.82,.05-1.22,0-.04,.02-.08,.03-.11l.04-.04h-.03c.02-.08,.04-.15,.05-.22,.1,.27,.68,.02,1.17-.18,.03,.09,.08,.14,.14,.11,0,.01,0,.02,0,.03-.03,.07-.06,.14-.09,.21m-.4,6.18s-.06-.09-.09-.14c.04-.03,.07-.05,.1-.07,0,.07,0,.15-.01,.21m-.29-.4c-.22-.28-.53-.56-.94-.86-.01-.03-.02-.06-.04-.1,.35,.21,.74,.57,1.09,.71-.04,.08-.07,.17-.11,.25m-1.27-6.91s.05-.05,.08-.08h0s0,.06,0,.09c-.03,.02-.06,.04-.08,.06,0-.02,0-.04,.01-.07m.53,1.9c-.03,.19-.04,.36-.02,.48-.02-.13-.01-.29,.02-.48m-11.12-1.68c-.07-.04-.14-.08-.21-.11-.04-.08-.09-.16-.12-.25,.13,.05,.25,.09,.37,.13-.01,.08-.03,.15-.05,.23m-1.65-82.22c.1-.27,.22-.55,.36-.83,.11,.16,.21,.33,.28,.54-.19,.07-.44,.19-.64,.29m-1.41,7.77c.04-.16,.09-.32,.12-.48,.22-.14,.24-.35,.64-.01-.25,.1-.49,.38-.77,.5m-.3,.99c.03-.09,.06-.18,.09-.27,.14,.06,.3,.1,.49,.11,0,.26-.26,.26-.58,.16m.68-2.63h0Zm-4.7,14.79c-.22-.18-.29-.32-.46-.49,.01-.06,.02-.12,.03-.19,.23,.16,.4,.4,.52,.69-.04,0-.06,0-.1-.01m-1.11,56.72c-.19,0-.38-.02-.59-.06,.56-.11,.45-.63,1.03-.54-.08,.16-.1,.39-.44,.6m-1.28-.28c.17-.13,.28-.24,.37-.44,.38,.07,.21,.44,.32,.66-.22-.05-.45-.11-.69-.22m-.46-.56c.11-.27-.02-.79-.21-1.4-.07-.26-.15-.54-.22-.83,.18,.5,.68,.92,1.34,.97,.2,.29-.43,.78-.92,1.25m-.2,.2s-.02,0-.03-.02c.03,0,.05-.02,.07-.03-.01,.01-.03,.03-.04,.04m-.28-2.65c-.07-.29-.14-.58-.19-.85,.05-.02,.11-.04,.16-.06-.03,.04-.05,.08-.08,.11,.39,.17,1.03-.86,1.39-.06,0,.02,0,.05,0,.07l-.16,.06,.17,.04c.04,.2,.14,.39,.33,.59,.05-.12,.1-.25,.15-.39,.18,.15,.4,.27,.72,.33-.22,.82-.97,.4-1.84,.91-.66-.43,.04-.87-.62-1.21-.05,.15-.05,.31-.03,.46m-.21-1.55c.14,.01,.26-.08,.36-.24,.01,0,.03-.01,.04-.02-.02,.12-.03,.27-.05,.43-.21-.03-.41-.06-.35-.17m161.01-11.46l.19,.11c-.37-1.3-.75-2.59-1.14-3.87,.47-1.75,.19-3.68-.09-5.65-.08-.48-.14-.95-.2-1.41,.12-.02,.23-.03,.34,0-.19-.4-.19-.96,.06-1.55-.19,.26-.37,.32-.53,.31-.01-.13-.03-.27-.04-.39-.08-.87-.01-1.67,.3-2.38l-1.33,.77c-.12-.77-.28-1.62-.45-2.47,.26-.28,.5-.56,.55-.82-.1,.29-.35,.42-.62,.47-.09-.45-.19-.88-.29-1.31,.1-.06,.19-.14,.26-.24-.17-.56-.19-1.1-.16-1.61,.32,.59,.59,1.41,.89,2.27-.15-1.26-.43-2.42-.77-3.51,0-.07,.02-.14,.02-.2,.09-.94,.08-1.82-.7-2.52l-.27,.32c-.46-.97-.98-1.86-1.53-2.64,.21-.06,.41-.09,.55-.06-.17-.29-.33-.58-.51-.85,.41,.06,.9-.14,1.31-.07,0-.02,0-.04,0-.06,.59,1.26,1.19,2.47,.87,3.71l.52-1.46c.68,1.61,1.03,2.9,1.44,4.18-.23-1.58,.04-2.81,.24-3.88,.21-1.12,.3-2.08-.57-3,.58-.34,.74-2.34,1.72-1.04,.87,1.71,.34,3.24,1.29,3.2-.52-1.95,.22-1.35-.74-4.23-1.3-.24-3.05-2.07-4.6-3.79-1.27-1.92-2.13-4.61-2.38-6.38,.85,2.03,2.63,3.77,3.3,2.96-1.58-.83-.45-4.46-1.88-3.27-.73-2.48-2.35-6.52-1.09-7.34,1.44,2.1,1.42,4.66,2.42,6.52-.16-.55,0-1.21,.44-1.01,.3,.99,.61,1.97,.87,2.97-.06-2.45,.52-2.17-.65-4.95-.05,.22-.15,.66-.31,.42-.29-.69-.55-1.6-.87-2.29l1.24-.58c-1.41-1.87-1.42-6.6-4.15-10.04l.42,.23c-1.14-3.19-3.76-2.28-5.67-5.38,1.05,.65,1.33-.04,1.82-.51-1.48-1.33-.99-2.73-1.6-4.58,.38,2.32-1.98-.57-1.58,1.04-.55,.39-1.35-.26-2.11-1.21-.77-.96-1.47-2.23-2.04-3.13,.35-1.02,1.56,.2,2.43,1.21,.91,1.01,1.72,1.85,1.68,.06-.95-1.85-2.05-1.73-1.57-.34-.54-1.13-1.5-2.59-2.22-4.02-.39-.76-.65-1.3-.88-1.9-.22-.58-.36-1.14-.4-1.63-2.73-1.39-2.84-2.71-5.3-3.02,.98,1.11,2.03,.41,2.61,2.29l-2.26-.81c-1.72-2.04-2.19-4.42-3.3-5.96l1.7,1.16-.22,.06c.92,.22,2.26,2.39,2.82,1.57-2.05-.63-2.03-2.47-4.21-3.73l.21-.06c-3.43-2.5-3.39-6.81-7.04-6.99,.56,.51,.9,2.29,.22,2.27-.22-1.11-2.12-2.78-1.54-3.22l.76,.43c-1.49-1.81-2.36-2.84-3.08-3.23-1.05,.2-1.11,1.11-2.55,.35-2.22-3.04,2.52-.38,1.28-2.71l-.76-.44-.38-.22-.1-.05-.19-.16-.34-.27-1.37-1.02-.69-.49c-.13-.06-.19-.21-.39-.19l-.36-.22c-.23-.52-.42-1.1-.71-1.59-2.04-1.59-4.38-2.47-6.68-3.08-1.26-.28-2.1-.41-2.88-.47-.78-.05-1.61-.11-2.35-.09-3.05,0-5.84,.34-8.94,.06,0-1.38,4.62-1.52,6.34-1.29-1.94-1.53-4.97-.18-7.49-1.23-2.41-.39-4.25,.74-3.92,1.52-2.92,.33-2.02-.9-2.39-1.16-1.01,1.44-4.59,.8-6.89,1.12l-.1-.84-3.58,1.03c.92,.09,.1,.84,.1,1.37l-.91-.07c3.44,2.27,7.87-1.58,11.41,1.19-1.11,.28,.34,.78-.77,1.06-.91-.12-1.09-.25-1.17-.57-.57,.67-2.03,1.24-.13,1.24-.15,1.77-3.92,1.22-6.52,1.83-2.07-1.14,2.16-1.69,3.26-2.51-1,.12-1.82,.86-3.26,.42l.36-1.33c-3.62,.72-.99,1.16-1.8,2.45-.97,1.69-3.22-.05-4.21,.08l1.07-.34c-2.79-.52-3.39,.91-5.88,.87l-1.21-1.01c3.18,1.22,3.8-1.97,5.62-1.32-4.63-1.14,.92-2.77,2.39-3.9-2.02,.26-3.83,.15-4.95-.55-2.86,1.82-6.15-.43-8.85,1.78-1.56-.16,1.3-1-.33-.95-3.01,.02-6.18,.47-9.29,1.51-1.64,.1-1.42-.52-1.93-1.04-4-.04-6.72,.88-9.5,1.84-2.79,.96-5.62,1.97-10.09,2.39l1.17-.94c-1.9,.16-3.49,.24-4.33,1.41-.9-.37-2.04-.28-3.26,.04-1.19,.38-2.45,1.03-3.68,1.72-2.42,1.45-4.59,3.09-6.85,3.17-1.08,.64-1.86,1.22-2.38,1.81-.51,.59-.84,1.14-1.11,1.69-.58,1.08-.85,2.18-2.02,3.55-.37-.36-.25-1.84-1.78-.68-3.84,4.56-6.71,8.99-9.29,13.56-2.57,4.57-4.78,9.31-6.81,14.6-.15-.16-.08-.75-.04-1.05-3.13,6.72-3.26,14.15-5.58,19.62,.01,1.17-.43,4.49,.74,3.74,.48-1.3,1.65-1.17,2.32-.89-.33,5.25-2.29,2.04-2.8,5.5-1.98,.67-.64-2.41-2.15-2.79-.05,1.74-.06,3.49-.06,5.22-1.16,2.69-.71,5.7-1.94,8.03,.38-1.07-1.25-.58-.26-2.31,.03,.29,.18,.13,.21,.42,.94-4.18-.43-2.45-.04-6.29-.29,3.39-.67,7.95-1.44,10.88,1.27-.48,.17,2.49,.83,3.43l-.15,.17c.51,.06,.67,1.96,.77,2.54l-1.6,.6c.09,1.36,.8-.31,.88,1.04,.12,1.87,.11,8.83-1.39,9.38,.09,1.21,.36,1.97,.6,2.74,.28,.78,.52,1.56,.54,2.81-.42-.16-.63-.75-.84-.82,.04,2.69,.54,5.69,1.16,8.64,.34,1.48,.61,2.95,.99,4.38,.34,1.43,.62,2.83,.92,4.15,.92,1.98,1.96,3.75,2.96,5.29,1.09,1.5,2.12,2.78,3.33,3.65-.78-.9-2.02-4.04-.26-2.63,.54,.34,.99,.91,1.47,1.54,.48,.63,.91,1.39,1.54,2.01-.91,.11,1.99,4.08-.53,1.52-.47,.89,.79,2.41,2.04,3.76,1.27,1.34,2.55,2.5,1.92,3.1,.49,.13,1.62,1.17,3,2.2l.52,.38,.26,.19,.14,.1c.19,.12,.39,.24,.59,.34,.17,.07,.46,.25,.72,.37,.26,.12,.5,.21,.73,.26-.13,.4-.64,.11-1.17-.23-.3-.21-.42-.24-.6-.32-.16-.06-.3-.07-.38,.03l.56,.33,.78,.55-.35,.39c1.19,1.4,2.46,1.93,3.5,2.17,1.07,.26,2.09,.28,3.1,.91l-.2,.1,1.42,.81-2.36-.12c1.05,.76,2.05,1.09,3.09,1.4,1.04,.31,2.08,.67,3.33,1.37l-.02,.52,1.69,.58c-.28-.1-.48,.01-.4,.22,1.06-.1,2.22,.53,3.45,1.05,1.21,.53,2.39,1.08,3.32,.98,.83,.77,.88,2.65,2.76,2.37l-1.04,1.32c-1.74-.81-1.91-1.24-2.11-1.65-.21-.41-.45-.78-2.32-1.56,.35,.84,1.07,1.73,2.04,2.64,.99,.88,2.25,1.71,3.61,2.54,.69,.4,1.38,.84,2.12,1.2,.75,.34,1.5,.69,2.24,1.02,1.5,.64,2.93,1.31,4.26,1.75,1.16,.14,2.42,.51,3.71,.96,1.29,.44,2.59,1,3.87,1.33,2.54,.74,4.84,1.22,6.04,.29l-.7,.84c2.36,.89,4.78,1.62,7.19,2.43,3.17,.4,6.39,.82,9.42,1.2,3.03,.24,5.89,.18,8.31-.35l1.3,.91c2.52-1.4,6.69-1.79,10.62-2.28,3.9-.73,7.58-1.52,8.94-3.35,2.81,.48-.65,1.36-.86,1.98,2.07,.16,5.12-2.67,7.3-1.44,.1,.51-2.78,.93-1.43,1.04,1.66,.73,1.94-1.31,3.82-.6-.93-.86,2.21-2.61,4.54-3.52q-.45,.08-.68,.02c-.54-.65,1.28-.97,2.22-1.35,0,0-.03,.21-.27,.37,1.5-.55,2.99-1.29,4.51-1.92,1.51-.68,3.01-1.46,4.53-2.19,2.98-1.63,5.99-3.29,8.82-5.32,5.74-3.9,10.89-8.77,15.2-14.04l-.91,2.46c.77-1.9,3.03-4.54,3.74-5.44l-.08,.29c1.62-1.19,1.8-2.32,1.9-3.31,.13-.99,.18-1.85,1.58-2.77l-.08,.58c.92-2.03,1.91-3.55,2.79-5.14,.86-1.59,1.58-3.26,1.65-5.52,.11-.27,.22-.51,.32-.74,.01,.02,.03,.05,.05,.07,.28-.4,.36-.64,.32-.81,.29-.53,.55-.89,.79-1.21,.07,.23,.13,.47,.19,.71,.34,1.41,.55,2.83,1.4,1.75,.92-1.67-.46-1.88-1.02-3.15,.34-.41,.68-.89,1.07-1.73,.12-1.04-.04-1.83-.26-2.38,.04-.22,.09-.42,.14-.62,.09-.06,.17-.16,.25-.29-.06-.02-.11-.04-.16-.06,.2-.79,.41-1.45,.63-2.09l.23-.05c-.04-.07-.1-.13-.15-.19,.17-.49,.33-.99,.49-1.54,.38,.18,.75,.29,1.08,.19l-.77-.67,.88-.37,.04,.12c-.14-.48,.34-1.08,.83-.92,.36,.19,.23,.61,.59,.81-.23-.35,.14-.69,.58-1.07,.45,.65,.74,1.55,.7,3.88,.97,.35,1.01,4.17,.2,6.95l1.13-1.22c1.18,3.25-1.45,.29-.77,4.33-2.11,1.24-4.86,3.43-5.81,1.06-1.05,2.39-.37,3.5-1.15,5.76-1.88,.84-1.27-1.23-2.77-1.45-.35,1.56-.63,3.69,.64,2.92-.59,.9-1.27,1.74-1.97,2.52-.3-.09,.24-1.03,.46-1.4-.41,.46-.75,1.24-1.03,2.02-.29,.77-.56,1.54-.61,2,.13-.26,.49-.99,.88-1.13-.23,.66-.69,1.55-1.22,2.32-.53,.77-1.21,1.34-1.23,1.58,.51-.45,.91-.69,1.24-.89,.36-.19,.68-.3,.99-.45,.32-.14,.64-.3,.91-.59,.29-.28,.53-.69,.67-1.3,.19,.38,.64,1.23-.47,2.1,1.07-.47,1.9-1.23,2.51-1.85,.66-.63,1.15-1.14,1.81-1.29-1.45,1.12-1.21,2.65-1.37,3.11,.68-.62,1.33-1.68,1.79-2.7,.44-1.02,.68-1.99,.67-2.52,.83,.23,1.31-1.13,1.61-2.21,.31-1.08,.49-1.91,1.04-.76-.47-.48,.09-2.42,.72-3.34,.7,.27,.35,3,.74,4.45-1.32,5.85-1.1-.55-2.09,.58-.47,1.37-1,2.77-1.71,4.21,.22-.16,.26,.41,.39,.67,.13,.26,.46,.18,1.12-1.27,.15,.89,.03,2.14-.6,3.52-.59,1.34-1.8,2.89-3.57,3.91-.19,.49,.26,.24,.84-.23,.52-.45,1.09-1.11,1.37-1.4-.08,.46-.52,1.82-.65,2.64-.04,.4,.09,.64,.6,.46,.27-.09,.58-.27,.96-.57,.37-.29,.92-.77,1.36-1.32-.55,.64-.26-.05-.14-.64,.12-.59,.07-1.04-1.03-.08,.66-.96,1.81-2.46,2.61-3.4,.83-.95,1.49-1.42,1.48-.35,.4-1.07,.79-2.54,1.05-3.89,.27-1.35,.44-2.59,.57-3.32,.86-.18-.06,1.3,0,2.17,.47-1.76,.82-3.45,1.09-5.1l-1.19,1.16c1.56-3.4,.02-6.02-.08-8.79,1.24,.6,.96,2.87,1.2,4.84,1.95-1.4-.55-1.33,.22-4.1,.31-.34,.64-.38,1.01-.12-.26-.82-.5-1.64-.78-2.44,.2-.48,.38-.35,.47-.12-.86-3.66-1.78-.1-1.73-5.13-1.06,2.93,.6,2.69,.08,5.25-1.18,1.32-1.25-3.19-1.73-3.98,.62-2.39,2.66-2.47,1.87-5.68,.43,2.25,1.25,.2,.96,3.33,.48,1.83,.7-.86,1.5-1.15-.16-.85-1.45,.41-1.03-1.87"/></g></g></svg>