<?xml version="1.0" encoding="UTF-8"?><svg xmlns="http://www.w3.org/2000/svg" viewBox="0 0 183.66 192.33"><defs><style>.d{fill:#ef4b5e;}</style></defs><g id="a"/><g id="b"><g id="c"><path class="d" d="M116.33,186.48c-.19-.03-.62,.11-1.72,.51,.61-.15,1.15-.33,1.72-.51"/><path class="d" d="M130.31,178.55c-.2,.1-.39,.21-.58,.29,.05,.31,.55-.06,.58-.29"/><path class="d" d="M169.22,107.48c.05,.33,.1,.67,.15,1-1.44,.5,1.57,1.83-.94,2.16-.28-.29-.77-.05-1.05-.33,.11-.18,.24-.2,.56-.17-.66-.23-1.21-.62-1.23-.22-1.74-.3-1.19-1.02-1.71-1.64,.19-.04,.36-.04,.52-.03-.01,.08-.02,.15-.03,.23,.1-.03,.18-.11,.26-.2,.67,.17,1.06,.78,1.67,1.05-.09-.23-.83-.51-.34-.74l1.3,.27c-.61-.86-1.12-.37-2.37-.73-.04-.01-.07-.02-.11-.03,.12-.19,.23-.43,.33-.71l.14,.13c.26-.21,.17-.39,0-.56,.05-.18,.1-.36,.15-.55v-.03c.07,.4,1.95,.8,1.37,1.04,.69-.41,1.36-.26,2,.05-.27,.03-.52,.29-.67,.01m-1.06,12.19s.07-.01,.1-.02c.06,.04,.11,.08,.16,.13-.1-.03-.19-.06-.27-.11m-1.52,3.84l-.12-.15c.13-.4,.59-.59,1.03-.77-.29,.3-.6,.61-.9,.92m-1.54,2.32v-.02s0-.01,0-.02c0,.01,0,.02,0,.04m.49-18.28c0,.14-.02,.28-.04,.44-.41-.18-.22-.32,.04-.44m.98-1.43l.3-.03c-.2,.07-.3,.14-.34,.22,.01-.06,.02-.12,.04-.19m-6.97,41.6c-.6,.44-1,1.02-1.32,1.65l-.86-.58c.23-.21,.41-.37,.58-.52,.04,0,.07,0,.12,0,0-.04,0-.07,0-.11,.79-.68,.96-.8,1.47-2h-.85c-.09-.14-.15-.26-.19-.36,.06-.18,.11-.36,.17-.55,.47-.23,1.49-.16,1.41-1.28-.07-.31-.14-.57-.23-.81,.88,.47,.91,2.1-.3,4.56m-1.77,2.65c-.04-.4-.26-.83,.42-.94-.15,.31-.29,.62-.42,.94m-.28-14.67s-.02,.04-.04,.07h-.03s.04-.04,.06-.07m-.25-1.28c.27-.05,.54-.12,.82-.23,.02,.39-.22,.88-.51,1.41-.18-.3-.32-.61-.45-.94l.15-.25Zm-.59,1.01l.21-.37s.02,.04,.03,.07c-.05,.17-.14,.25-.24,.3m1.35-1.5c-.16,.05-.35,.08-.54,.12l.25-.43c.14,.09,.23,.19,.28,.32m-6.18-51.87c2.72,3.36,4.37,7.63,4.37,12.47,0,11.08-8.31,19.55-19.62,19.55-4.87,0-9.12-1.64-12.46-4.32l-7.5,7.5-4.32-4.32,7.71-7.71c-1.93-3.05-3.05-6.7-3.05-10.71,0-11.08,8.31-19.56,19.62-19.56,4.04,0,7.66,1.12,10.69,3.01l7.32-7.32,4.32,4.32-7.08,7.08Zm2.9,52.82c.1-.13,.19-.25,.29-.38,.11-.09,.22-.21,.32-.34,.07,.02,.14,.02,.19,0-.11,.72,.38,1.08,.69,1.44-.53-.15-1.04-.4-1.48-.72m.03,19.67s.03-.07,.05-.11l.14,.12c-.06,0-.12-.01-.19-.01m-1.78-2.69l-.04-.85c-.1-.02-.18,0-.25,0,.04-.2,.11-.38,.2-.53,.25-.07,.49-.01,.68,.39,.16-.3,.14-.72-.07-1.05,.11-.08,.23-.17,.35-.25,.29,.28,.58,.65,.76,.93-.53,.41-.91,.76-1.63,1.34m-.32,.26c0-.06,0-.12-.01-.18,.06,0,.12,0,.18,.04-.06,.05-.11,.08-.17,.13m-20.29,16.51c-.24-.76-.51-1.48,.22-1.86,.59,.04,.85,.55,1.04,1.15-.43,.31-.86,.55-1.26,.71m-2.02-11.43s-.07-.19-.05-.29c-.11,.14-.25,.27-.37,.41,.13-.23,.24-.49,.27-.8,.19-.03,.32-.01,.43,.02,.18,.42-.15,.48-.28,.66m-7.4,10.35c-.39,.1-.78,.08-1.17,.04-.18-.29-.35-.76-.15-1.15,.37-.3,.67-.75,1.03-.74,0,.52-.27,.76-.45,.92,0,0,.81,.14,.88,.78-.04,.06-.08,.11-.13,.15m-1.64,0v-.04c.16-.2,.26-.07,.34,.08-.11-.01-.22-.02-.34-.04m-2.01-.71c.05-.09,.09-.19,.12-.29,.17,.01,.32,.05,.45,.15-.07,.27-.17,.46-.57,.14m-1.75-1.7s0-.05,0-.07c.02,.03,.03,.06,.05,.08h-.05Zm1.46,2.44l.22,.18c-.24,.11-.48,.25-.74,.45-.15,1-.88,1.35-1.76,1.58-.01-.07-.02-.14-.05-.2,0,.06,0,.13,.01,.21-.09,.02-.18,.05-.28,.07l.11-.42c.08,.02,.12,.08,.16,.15,.05-.77,1.26-.7,1.72-1.39-.5-.92-.67,.32-1.05,.39-.2-.16-1.03-.22-1.07-1.02,.75-.41,.8-1.59,1.48-2.16,.11,.22,.1,.48-.37,.95,.05,.57,.65,.4,1.24,.27,.21-.04,.41-.08,.61-.09-.22,.24-.62,.19-.23,1.04m-3.12-48.35s.04-.04,.07-.06c.29,.18,.58,.39,.81,.57,.02,.72-.31,.71-.7,.55,.17-.43,.17-.85-.18-1.07m.07,50.72c-.24,.04-.48,.09-.71,.14,.19-.38,.75-.35,1.08-.41l.03,.19c-.13,.03-.26,.06-.4,.08m-3.36,1.22c-.18-.25-.77-.14-1.28-.08,.47-.88,.93-1.83,1.56-2.38,.43,1.13-.04,1.75-.28,2.45m-3.64-.51c-.13-.35-.41-.71-.19-.85,.83-.14,.8,.19,.92,.47-.23,.1-.47,.23-.72,.37m-6.8-57.31l-3.85-22.73-10.97,24.48-8.01-18.11c-.01,.21-.07,.41-.01,.62-.22,.33-.9-.04-1.52-.31-.07-.22-.15-.43-.22-.62-.66-.28-1.35-.84-1.89-1.5l-2.27,13.06c.27-.21-.07-.86,.42-.85,.44,.69-.66,.46,.1,1.35,.31-.22-.17-1.08,.37-1.09,.3,.26,.4,.43,.42,.58-.02-.03-.05-.05-.07-.08-.04,.34-.11,.64-.18,.94-.38-.14-.73-.39-1.11-.56l-.84,4.83h-5.88l7.91-40.53,7.74,17.27c.51,.11,.43,.41,.32,.72l.06,.14,.35-1.24c.82,.04,.91,.94,.5,1.21,.42,0,.64-.18,.72-.44,.1-.08,.21-.15,.32-.23,.1,.14,.2,.32,.26,.6,.09-.12,.29-.1,.52,0l.18,.15c-.72-.11-.21,.62-.37,.97-.35,0-.3-.28-.34-.49-.24,.42-.71,.58-.7,1.06-.1-.18-.3-.39-.64-.65-.15,.08-.28-.02-.41-.08l.21,.48c.23,.18,.45,.38,.6,.58-.12-.1-.23-.08-.34-.04,0,0-.01,0-.02,0l4.15,9.26,13.23-29.28,7.12,40.53h-5.88Zm-9.35,58.71c-.12-.46,.48-.39,.96-.49,.2,.12,.43,.22,.64,.36-.57,0-1.15,0-1.6,.13m-4.85-53.3c-.05-.05-.09-.1-.13-.16,.11-.09,.22-.18,.34-.25-.06,.14-.13,.28-.2,.41m-10.6-17.4h0Zm-.77-1.04l-.15,.09c-.03-.31,.08-.52,.41-.52,.04,.05,.07,.11,.1,.17,.08,.43,.14,.81,.11,1.14h.01c-.08,.07-.13,.26-.29,.31-.09-.2-.18-.42-.25-.63,.11-.14,.24-.29,.06-.55m.27,2.7c-.11-.37-.36-.73-.93-1.13-.07-.37,.13-.37,.41-.28l.04,.28c.15-.59,1.05,.72,.96,.97-.16,.07-.32,.13-.48,.16m-1.67,1.88c.09-.2,.08-.33,.02-.44,.23-.07,.69,.14,1.09,.14,.1,.21,.15,.45,.21,.61l-1.32-.31Zm-5.68-29.34s.1-.02,.19-.01c0,0,.01,.01,.02,.02-.07,.07-.14,.13-.21,.2-.03-.03-.04-.06-.05-.09,.02-.04,.04-.08,.05-.12m.59-.36h0s-.03-.1-.06-.16c.04,.03,.06,.08,.06,.16m.01-47.83c.06,.14,.14,.29,.27,.42-.18,.18-.37,0-.53-.3,.08-.04,.17-.08,.25-.12m1.09-.61c.26,.06,.42-.08,.46,.44-.25-.1-.61-.08-.89-.19,.15-.08,.29-.17,.43-.25m1-.64h0Zm.81,47.98h.03s-.03,.02-.05,.03c0,0,.02-.02,.02-.03m5.08-51.91c-.03,.19-.08,.39-.18,.58-.18-.08-.44-.18-.65-.25,.26-.12,.54-.23,.84-.33m7.28,67.57c0,.06-.01,.11-.11,.15-.03,0-.06-.02-.1-.03,.07-.04,.14-.08,.21-.13m-.74-1.26c.08,.19,.28,.43,.51,.68-.2-.08-.37-.22-.43-.18-.23,.08,.24,.32,.51,.54-.06,.09-.14,.19-.23,.29-.18-.04-.36-.1-.48-.25-.23,.29-.1,.4,.07,.64-.09,.08-.19,.16-.31,.24,.11-.4-.11-.98-.56-1.45,.43-.17,.35-.48,.93-.51m.34-.27c.39,.19,.73,.29,1.05,.33-.19,.12-.31,.24-.41,.37-.04-.02-.08-.04-.12-.05-.13-.15-.3-.28-.51-.39-.05-.06-.09-.13-.13-.2,.04-.02,.08-.03,.12-.05m.37,5.59c-.79-.89-.61,.13-.92,.19-.64-.44-.24-.67-.2-1.05,.04,.1,.1,.21,.18,.34,.22-.02,.39-.09,.54-.18l.4,.69Zm1.2-1.75c-.58,.47-.11,1.47-1.54,1.01,.63-.45,.72-1.42,1.42-1.42,.1,.15,.15,.29,.12,.41m.24-3.06c-.02,.06-.03,.12-.06,.18-.06-.03-.1-.06-.14-.09,.07-.03,.14-.06,.2-.1m1.5-.61c-.1,.12-.22,.23-.3,.38-.23,.05-.4,.01-.54-.08,.28-.11,.56-.21,.84-.3m-1.1-1.06c.05,.18,.1,.35,.11,.51,.35,.22,.39-.08,.56-.28-.02,.05-.03,.11-.07,.16l.41-.06c.06,.08,.1,.15,.14,.21-.06,.3-.2,.55-.94,.41,.18-.13,0-.21,.18-.35-.17,.05-.32,.09-.47,.13-.25-.18-.39-.38-.46-.59,.17-.06,.35-.12,.53-.16m.75-.13s0,.05,0,.08c-.03-.02-.06-.04-.09-.06,.03,0,.07-.01,.1-.02m24.29-40.74c.15,.08,.31,.17,.49,.28,0-.07-.02-.14-.04-.21,.07,.03,.14,.07,.21,.11l-.23,.28,.89,.56c-.1-.06-.21-.04-.29,0-.33-.33-.78-.62-1.47-.84,.16-.12,.3-.17,.44-.19m2.76,2.26c-.24,.44-.45,.92-.61,1.39-.31-.85-.39-1.75-.98-2.47,.65,.13,1.14,.59,1.59,1.08m-.14,44.88c-.16,0-.33,0-.55,0-.5-.31-1.01-.56-1.53-.76-.02-.09-.02-.2-.01-.32,1.32-1.26,1.34,.78,2.09,1.09m.51-.05s-.01,.02-.01,.03h-.06s.05-.02,.07-.03m1.6-1.55c-.25,.45-.46,.95-.79,1.11-.25-.36-.35-.73-.28-1.08-.1,0-.16,.01-.25,.02l.09-.76h.13c.38,.23,.74,.46,1.09,.71m-.38-42.07c-.08,.33-.12,.67-.12,1.01-.02,.05-.03,.1-.05,.15-.78,.79-.94,.4-1.19-.05,.05-.24-.03-.54-.59-1.15,.16-.42,.36-.71,.55-.97,.42,.46,.85,.87,1.4,1.01m4.46,18.75l1.21-.05c-.34,.14-.53,.32-.63,.51-.24-.07-.47-.15-.69-.23,.03-.08,.06-.16,.11-.24m25.66-2.52s.02-.02,.03-.02c-.03,.1-.04,.2,.03,.28-.06,.02-.1,.03-.15,.04-.02-.11-.04-.22-.05-.33,.05,.01,.09,.02,.14,.04m.09-.07c.33-.26,.09-.43,.68-.47-.2,.22-.29,.54-.57,.75-.04,.01-.1,.03-.13,.05,0-.1,.01-.21,.02-.32m-85.62,27.88c0,6.45-1.92,11.71-5.6,15.27-3.9,3.79-8.54,4.8-12.83,4.8-5.49,0-9.39-1.58-12.83-5.14-3.68-3.78-5.6-8.81-5.6-14.24,0-.55,.12-1.05,.16-1.58-.03,.06-.07,.12-.1,.18-.06,.02-.12,.03-.17,.05-.04-.02-.08-.03-.11-.06,.38-.83,.69-1.57,.5-1.75,.02,0,.03-.01,.04-.02,.68-4.5,2.65-8.37,5.17-10.9,3.22-3.28,8.37-5.65,14.19-5.65,3.39,0,6.9,.73,9.84,2.37,3.11,1.76,5.03,3.96,6.11,5.65l-4.58,3.22c-1.13-1.58-2.82-3.28-4.64-4.3-2.09-1.25-4.35-1.64-6.67-1.64-4.92,0-8.08,2.03-9.95,3.9-2.49,2.48-4.01,6.5-4.01,10.57,0,3.78,1.41,7.58,3.9,10.23,2.6,2.77,5.83,3.78,9.44,3.78,3.28,0,5.99-.96,8.42-3.33,2.09-2.04,2.94-4.24,3.16-6.39h-9.39v-5.31h15.55v.28Zm-14.47,42.31c-1.68-.3-1.64-1.16-2.84-1.7-.08,.01-.16,.04-.23,.07-.64-.81-1.23-1.64-1.74-2.49,.03-.07,.06-.14,.09-.21,.48,.35,.96,.69,1.47,1.01-.47-.3-.93-.78-1.33-1.32,.29-.62,.56-.84,.91,.81,.27,.06,.43-.26,.55-.77,.19,.05,.49,.03,1-.11-.1-.11,.27-.63,.67-.92,.05,.06,.1,.12,.16,.16-.07,.36,.1,.68-.39,.95l-.31-.06c.13,.6,.2,.96,.52,1.01,.38-.15,.68-.33,.97-.47,.17,.13,.33,.26,.47,.49-.6,.28-1.53,.33-1.72,.98l1.29,.31-.57,.61c.05,.83,.79,1.11,1.64,1.34-.19,.08-.39,.17-.59,.3m-22.75-41.37c.04-.35,.03-.77-.05-1.27,.01-.03,.03-.06,.04-.09,.1,.4,.11,.93,.27,1.27-.08,.04-.17,.07-.26,.1m-.08,.49c.01-.05,.02-.11,.03-.17,.04,0,.08,.01,.13,.02-.05,.05-.11,.11-.16,.15m23.72-21.87c-.13-.02-.22-.01-.29,0,0-.04-.01-.08,0-.12l.3,.12Zm10.84-40.97c.05-.03,.1-.07,.15-.11,.05,.28,0,.56-.12,.85-.02-.03-.04-.04-.06-.08-.03-.28,.02-.44,.03-.67M20.34,81.83c-.02-.08-.04-.15-.07-.22,.03-.09,.05-.17,.09-.26,.06,.13,.12,.24,.17,.36-.06,.05-.12,.09-.19,.13m-2.1-12.16c-.16-.77,.65-.59,.42-1.29-.14,.07-.25,.18-.34,.31,.15-.26,.31-.51,.47-.73,.05,.02,.11,.05,.16,.07-.05,0-.09,.02-.13,.02,.15,.39,1.33,.12,1.02,.94-.02,.02-.03,.03-.05,.05l-.16-.07,.09,.15c-.11,.17-.18,.37-.18,.65,.12-.04,.25-.1,.38-.17,.02,.23,.09,.47,.27,.74-.74,.43-.97-.4-1.95-.66m-1.31,1.08c.26-.11,.55-.57,.84-1.13,.14-.24,.28-.49,.43-.74-.22,.48-.16,1.13,.27,1.63-.07,.35-.86,.25-1.53,.24m.64,1.83c-.14-.13-.26-.28-.38-.46,.48,.31,.76-.13,1.11,.35-.17,.06-.35,.21-.73,.11m-.71-1.1c.22,.03,.37,.02,.57-.05,.22,.32-.16,.46-.24,.69-.12-.19-.23-.4-.33-.64m-.21-.73s0-.02,0-.03c.02,.02,.05,.02,.07,.03h-.06m3.04-3.23s.03,.01,.04,.02c-.1,.07-.21,.17-.34,.27-.12-.17-.24-.33-.13-.37,.09,.11,.24,.12,.42,.08m162.85,26.34l.19,.11c-.66-4.19,2.41-7.22-.03-9.92,.03,.75-.98,2.25-1.45,1.76,.63-.94,.47-3.47,1.19-3.36l.23,.84c.23-2.33,.34-3.68,.1-4.47-.89-.6-1.57,0-2.05-1.55,.58-3.72,2.05,1.51,2.82-1.01l-.22-.84-.11-.42-.03-.1-.03-.25-.05-.43-.25-1.69-.14-.84c-.06-.13,.02-.28-.14-.4l-.09-.41c.21-.53,.48-1.08,.62-1.63-.31-2.57-1.35-4.84-2.54-6.9-.69-1.09-1.19-1.78-1.71-2.37-.52-.59-1.07-1.22-1.6-1.73-2.16-2.15-4.37-3.89-6.37-6.28,.98-.98,4.34,2.19,5.4,3.57-.29-2.46-3.39-3.64-4.43-6.17-1.43-1.98-3.53-2.48-3.85-1.69-2.3-1.83-.8-2.06-.87-2.51-1.73,.31-3.82-2.68-5.66-4.08l.53-.66-3.26-1.8c.59,.71-.53,.67-.89,1.04l-.59-.69c.83,4.03,6.68,4.45,7.23,8.9-.98-.59-.31,.79-1.29,.2-.56-.73-.59-.94-.42-1.23-.88,.07-2.31-.56-.97,.79-1.35,1.14-3.64-1.91-5.9-3.31-.66-2.26,2.72,.33,4.08,.53-.79-.62-1.9-.68-2.6-2.01l1.19-.68c-3.07-2.05-1.52,.12-3.01,.46-1.88,.51-2.24-2.31-3.04-2.92l.99,.52c-1.61-2.34-3.04-1.75-4.78-3.54l-.14-1.57c1.39,3.11,4.08,1.29,4.91,3.04-2.47-4.08,2.61-1.31,4.44-1.06-1.61-1.24-2.82-2.6-3.11-3.89-3.31-.74-4.04-4.66-7.52-5-.99-1.21,1.63,.22,.44-.91-2.14-2.12-4.7-4.04-7.63-5.5-1.23-1.09-.64-1.37-.63-2.1-2.81-2.86-5.37-4.13-8.01-5.41-2.65-1.29-5.37-2.58-8.82-5.45l1.49,.16c-1.46-1.23-2.64-2.3-4.06-2.06-.38-.9-1.24-1.64-2.34-2.28-1.11-.57-2.46-1.01-3.82-1.38-2.74-.68-5.43-1.06-7.08-2.6-1.21-.31-2.18-.45-2.96-.4-.78,.05-1.4,.21-1.98,.4-1.18,.36-2.15,.94-3.94,1.08,0-.52,1.13-1.48-.78-1.74-5.94,.51-11.1,1.61-16.16,3.02-5.05,1.42-9.96,3.21-15.14,5.51,.01-.22,.48-.59,.72-.77-6.97,2.54-12.32,7.7-17.82,9.93-.82,.83-3.47,2.87-2.12,3.16,1.26-.58,1.99,.34,2.28,1.01-3.95,3.48-3.06-.18-5.87,1.91-1.88-.92,1.26-2.16,.46-3.49-1.27,1.19-2.51,2.42-3.73,3.65-2.72,1.08-4.53,3.53-7.05,4.3,1.03-.48-.47-1.29,1.45-1.82-.19,.23,.04,.22-.15,.45,3.62-2.29,1.43-2.04,4.42-4.47-2.6,2.19-6.09,5.15-8.71,6.68,1.24,.56-1.64,1.88-1.83,3.02l-.22,.02c.32,.4-.91,1.86-1.25,2.35l-1.56-.71c-.9,1.02,.78,.35-.11,1.36-1.24,1.41-6.17,6.32-7.62,5.65-.79,.92-1.14,1.65-1.51,2.37-.35,.75-.73,1.47-1.61,2.37-.19-.41,.08-.97-.01-1.18-1.87,1.93-3.64,4.4-5.29,6.93-.81,1.28-1.66,2.52-2.39,3.8-.77,1.25-1.56,2.44-2.29,3.59-.75,2.05-1.27,4.04-1.65,5.83-.29,1.83-.47,3.47-.23,4.93,.09-1.19,1.43-4.28,1.68-2.04,.14,.63,.06,1.34-.05,2.13-.11,.79-.34,1.62-.33,2.51-.72-.57-1.48,4.29-1.45,.7-.96,.29-1.15,2.26-1.22,4.1-.05,1.85,.03,3.57-.83,3.55,.26,.44,.32,1.98,.56,3.67l.1,.64,.05,.32,.03,.17c.05,.22,.1,.44,.17,.65,.07,.17,.15,.5,.25,.77,.09,.27,.2,.5,.33,.7-.38,.2-.53-.37-.66-.99-.06-.36-.12-.46-.19-.65-.07-.16-.16-.26-.29-.25l.16,.63,.17,.94-.52,.02c-.15,1.83,.37,3.11,.94,4.01,.58,.94,1.28,1.68,1.55,2.84l-.21-.07,.43,1.57-1.58-1.75c.21,1.28,.68,2.22,1.2,3.18,.52,.96,1,1.94,1.38,3.32l-.39,.35,.79,1.61c-.13-.27-.35-.33-.43-.12,.82,.67,1.2,1.95,1.69,3.18,.48,1.23,.93,2.46,1.65,3.04,.05,1.13-1.25,2.5,.27,3.63l-1.66,.2c-.66-1.8-.47-2.22-.32-2.66,.14-.43,.23-.87-.53-2.74-.34,.84-.46,1.98-.42,3.31,.08,1.32,.39,2.8,.76,4.35,.2,.77,.38,1.57,.65,2.35,.29,.77,.57,1.54,.86,2.3,.61,1.51,1.15,3,1.77,4.25,.72,.92,1.35,2.07,1.95,3.3,.59,1.22,1.12,2.53,1.79,3.68,1.27,2.32,2.56,4.28,4.07,4.48l-1.09,.1c1.04,2.3,2.23,4.52,3.37,6.8,1.96,2.53,3.94,5.1,5.81,7.51,1.97,2.31,4.04,4.29,6.12,5.62l.28,1.56c2.77,.79,5.99,3.46,9.12,5.9,3.28,2.24,6.43,4.28,8.69,3.95,1.65,2.33-1.42,.5-2.01,.79,1.35,1.57,5.51,1.74,6.18,4.15-.29,.43-2.62-1.31-1.75-.28,.66,1.69,2.3,.45,3.13,2.28-.05-1.27,3.41-.28,5.7,.72q-.38-.27-.49-.47c.07-.84,1.59,.21,2.53,.61,0,0-.18,.13-.45,.06,1.45,.67,3.03,1.2,4.55,1.83,1.55,.59,3.16,1.09,4.75,1.66,3.26,.95,6.57,1.91,10,2.48,6.82,1.3,13.9,1.5,20.68,.82l-2.39,1.1c1.89-.8,5.35-1.07,6.49-1.2l-.26,.15c1.98,.3,2.91-.37,3.68-1,.79-.61,1.43-1.18,3.08-.84l-.47,.35c2.08-.79,3.86-1.16,5.61-1.66,1.73-.51,3.42-1.2,5.07-2.73,.28-.11,.52-.21,.75-.29,0,.03-.01,.05-.02,.08,.48-.08,.71-.2,.8-.35,.58-.17,1.02-.25,1.41-.29-.11,.21-.24,.42-.36,.63-.76,1.24-1.61,2.39-.25,2.23,1.83-.53,1-1.65,1.51-2.95,.53-.06,1.11-.15,1.98-.47,.82-.65,1.27-1.32,1.5-1.86,.19-.12,.36-.24,.54-.34,.11,.02,.23,.01,.38-.03-.03-.06-.05-.11-.07-.16,.7-.42,1.32-.73,1.92-1.03l.2,.12c.02-.08,.02-.16,.03-.24,.47-.23,.93-.46,1.44-.74,.14,.4,.32,.74,.63,.89l-.07-1.02,.89,.36-.06,.11c.24-.44,1-.52,1.24-.06,.12,.39-.27,.59-.16,.99,.08-.41,.59-.39,1.17-.34-.14,.78-.57,1.62-2.25,3.24,.44,.93-2.23,3.67-4.78,5.06l1.66-.06c-1.46,3.13-1.23-.82-3.61,2.52-2.36-.62-5.86-1.01-4.86-3.36-2.44,.95-2.73,2.21-4.89,3.26-1.92-.74-.03-1.77-.94-2.99-1.35,.86-3.06,2.16-1.61,2.51-1.06,.22-2.13,.34-3.17,.39-.15-.28,.9-.56,1.32-.66-.62,.04-1.41,.35-2.16,.7-.74,.34-1.48,.69-1.84,.98,.28-.09,1.05-.35,1.42-.18-.63,.31-1.58,.61-2.5,.78-.92,.17-1.8,.09-1.99,.25,.68,.04,1.12,.16,1.51,.25,.39,.12,.7,.27,1.02,.38,.32,.13,.66,.24,1.06,.22,.4,0,.86-.12,1.4-.44-.13,.41-.42,1.32-1.82,1.16,1.09,.42,2.21,.47,3.08,.47,.91,.02,1.62,0,2.19,.37-1.82-.23-2.73,1.02-3.17,1.23,.92,.04,2.13-.25,3.17-.65,1.03-.41,1.89-.93,2.26-1.31,.42,.75,1.72,.13,2.69-.42,.98-.54,1.7-1,1.27,.19,0-.67,1.78-1.65,2.87-1.85,.3,.69-1.87,2.36-2.62,3.66-5.07,3.2-.38-1.17-1.88-1.06-1.31,.64-2.67,1.25-4.19,1.76,.27,.04-.1,.47-.2,.75-.09,.28,.2,.45,1.69-.11-.52,.73-1.49,1.54-2.92,2.07-1.36,.54-3.31,.77-5.29,.24-.48,.21,.01,.35,.76,.43,.69,.05,1.56,0,1.96-.02-.38,.27-1.65,.92-2.33,1.41-.31,.25-.39,.51,.1,.75,.26,.12,.6,.22,1.09,.27,.47,.05,1.19,.1,1.89,.03-.84,.06-.15-.22,.35-.55,.5-.33,.79-.69-.67-.79,1.14-.21,3.02-.46,4.26-.56,1.26-.09,2.06,.05,1.3,.8,1.04-.48,2.36-1.24,3.49-2.01,1.15-.76,2.14-1.52,2.75-1.95,.73,.48-.97,.88-1.54,1.53,1.58-.92,3.02-1.86,4.38-2.84l-1.66-.02c3.51-1.3,4.27-4.24,6.16-6.27,.45,1.31-1.35,2.71-2.57,4.28,2.37,.39,.55-1.33,3.06-2.75,.46-.02,.72,.19,.8,.63,.4-.76,.8-1.51,1.18-2.27,.48-.2,.51,.02,.42,.24,1.98-3.2-1.19-1.33,2.4-4.85-2.82,1.33-1.48,2.32-3.66,3.77-1.77,.1,1.38-3.14,1.59-4.04,2.12-1.25,3.62,.14,5.34-2.69-1.29,1.9,.74,1.03-1.68,3.04-.95,1.63,1.1-.11,1.87,.25,.49-.72-1.32-.74,.59-2.05l.06,.21c.66-1.18,1.31-2.36,1.93-3.55,1.57-.9,2.73-2.47,3.93-4.06,.28-.39,.57-.77,.86-1.14,.1,.07,.19,.14,.24,.23,.16-.42,.55-.81,1.14-1.06-.32,.04-.49-.03-.59-.16,.08-.1,.17-.21,.25-.3,.56-.67,1.17-1.19,1.9-1.46l-1.49-.4c.46-.63,.95-1.34,1.43-2.07,.38-.02,.75-.04,.97-.19-.28,.13-.54,.05-.77-.11,.25-.38,.49-.76,.72-1.13,.11,.03,.23,.04,.36,.02,.27-.51,.64-.91,1.03-1.26-.19,.65-.58,1.41-.97,2.24,.78-1,1.41-2.02,1.94-3.03,.05-.04,.11-.09,.16-.13,.73-.6,1.34-1.23,1.29-2.27l-.42,.03c.36-1.02,.62-2.01,.78-2.95,.19,.1,.35,.23,.43,.34,.08-.32,.18-.65,.24-.97,.25,.33,.74,.54,.98,.88,.02-.01,.02-.03,.04-.04-.48,1.31-.9,2.59-2.01,3.24l1.4-.67c-.99,2.44-2.08,3.64-2.8,5.9l-.12-.19c.17,.57,.3,1.15,.44,1.74,.24-.35,.52-.7,.74-1.05,.14,1.15-.42,4.09-.96,4.82,2.35-3.49,.65-4.93,.63-7.1,.99-1.4,2.11-2.07,3.05-2.71,.94-.64,1.69-1.26,1.72-2.52,.65,.17,2.18-1.14,1.95,.47-.59,1.82-2.05,2.54-1.35,3.18,1.01-1.74,1.11-.8,2.47-3.52-.75-1.09-.69-3.62-.57-5.93,.46-2.26,1.76-4.77,2.84-6.19-.83,2.04-.81,4.52,.24,4.43-.53-1.71,2.83-3.47,.98-3.64,1.23-2.27,2.95-6.28,4.42-5.96-.47,2.5-2.29,4.3-2.9,6.32,.28-.51,.86-.86,1.03-.4-.49,.91-.96,1.82-1.48,2.72,1.69-1.78,1.9-1.17,3.04-3.96-.19,.12-.57,.36-.52,.07,.28-.69,.74-1.52,1-2.23l1.29,.47c.32-2.32,3.66-5.67,4.17-10.03l.13,.45c1.45-3.06-1.04-4.27-.21-7.81,.29,1.2,.98,.91,1.65,.92-.11-1.99,1.23-2.63,2.11-4.37-1.37,1.91-1-1.81-1.85-.38-.67-.12-.77-1.13-.64-2.35,.14-1.22,.53-2.62,.78-3.66,.97-.47,.96,1.25,.86,2.58-.07,1.36-.09,2.52,1.15,1.23,.64-1.98-.23-2.67-.88-1.35,.42-1.18,.77-2.89,1.27-4.41,.26-.82,.46-1.38,.72-1.97,.26-.56,.54-1.06,.87-1.43-.95-2.91-.09-3.92-1.61-5.88-.09,1.48,1.14,1.72,.23,3.47l-1.02-2.17c.23-2.66,1.57-4.67,1.88-6.55l.39,2.02-.19-.11c.49,.8-.09,3.29,.89,3.11-1-1.89,.31-3.18-.34-5.62"/><path class="d" d="M76.7,94.04c.06,0,.11-.01,.17-.01,.32,.43,1.14,.49,1.55,.77l-1.87-4.23-.73,4.18c.27-.23,.55-.47,.85-.66,0-.01,.02-.03,.03-.05"/><path class="d" d="M136.63,80.28c-8.09,0-13.85,5.88-13.85,14.25,0,2.44,.54,4.62,1.43,6.55l19.15-19.15c-1.96-1.04-4.21-1.66-6.73-1.66"/><path class="d" d="M128.03,105.91c2.31,1.79,5.24,2.86,8.6,2.86,8.08,0,13.85-5.88,13.85-14.24,0-3.32-.93-6.22-2.53-8.54l-19.92,19.92Z"/><path class="d" d="M130.31,178.55l.34-.17-.55,.02c.18,0,.23,.06,.21,.15"/></g></g></svg>