<?xml version="1.0" encoding="UTF-8"?><svg xmlns="http://www.w3.org/2000/svg" viewBox="0 0 183.66 192.33"><defs><style>.d{fill:#ef4b5e;}</style></defs><g id="a"/><g id="b"><g id="c"><path class="d" d="M169.22,107.48c.05,.33,.1,.67,.15,1-1.44,.5,1.57,1.83-.94,2.16-.28-.29-.77-.05-1.05-.33,.11-.18,.24-.2,.56-.17-.66-.23-1.21-.62-1.23-.22-1.74-.3-1.19-1.02-1.71-1.64,.19-.04,.36-.04,.52-.03-.01,.08-.02,.15-.03,.23,.1-.03,.18-.11,.26-.2,.67,.17,1.06,.78,1.67,1.05-.09-.23-.82-.51-.34-.74l1.3,.27c-.61-.86-1.12-.37-2.37-.73-.04-.01-.07-.02-.11-.03,.12-.19,.23-.43,.33-.71l.14,.13c.26-.21,.17-.39,0-.56,.05-.18,.1-.36,.15-.55v-.03c.07,.4,1.95,.8,1.37,1.04,.69-.41,1.36-.26,2,.05-.27,.03-.52,.29-.66,.01m-1.06,12.19s.07-.01,.1-.02c.06,.04,.11,.08,.16,.13-.1-.03-.19-.06-.26-.11m-1.52,3.84l-.12-.15c.14-.4,.59-.6,1.03-.77-.29,.3-.6,.61-.9,.92m-1.53,2.32v-.02s0-.01,0-.02c0,.01,0,.02,0,.04m.49-18.28c0,.14-.02,.28-.04,.44-.41-.18-.22-.32,.04-.44m.98-1.43l.3-.03c-.2,.07-.3,.15-.34,.22,.01-.06,.02-.12,.04-.19m-6.97,41.6c-.6,.44-1,1.02-1.32,1.64l-.86-.58c.23-.21,.41-.37,.58-.52,.04,0,.07,0,.12,0,0-.04,0-.07,0-.11,.79-.68,.96-.8,1.47-2h-.85c-.09-.14-.15-.26-.19-.36,.06-.18,.11-.36,.17-.55,.47-.23,1.49-.16,1.41-1.28-.07-.31-.14-.58-.23-.81,.88,.47,.91,2.1-.3,4.56m-1.77,2.65c-.04-.4-.26-.83,.42-.94-.15,.31-.29,.62-.42,.94m-.27-14.67s-.03,.04-.04,.06h-.03s.04-.04,.07-.06m-.25-1.28c.26-.05,.54-.12,.82-.23,.02,.39-.22,.88-.51,1.41-.18-.3-.32-.61-.45-.94l.14-.25Zm-.59,1.01l.21-.36s.02,.04,.03,.07c-.05,.17-.14,.25-.24,.3m1.07-1.81c.14,.09,.23,.19,.28,.31-.16,.05-.35,.08-.54,.12l.25-.43Zm-3,1.26c.1-.13,.19-.25,.29-.38,.11-.09,.22-.21,.32-.34,.08,.02,.14,.01,.19,0-.11,.72,.38,1.07,.69,1.44-.54-.15-1.04-.4-1.48-.72m.03,19.67s.03-.07,.05-.11l.14,.12c-.06,0-.12-.01-.19-.01m-1.78-2.69l-.04-.85c-.1-.02-.18,0-.25,0,.04-.2,.11-.38,.2-.53,.25-.06,.49-.01,.68,.39,.16-.3,.14-.73-.07-1.05,.11-.08,.23-.17,.35-.25,.29,.28,.58,.65,.76,.93-.53,.41-.91,.76-1.63,1.34m-.32,.26c0-.06,0-.12-.01-.18,.06,0,.12,0,.18,.04-.06,.04-.11,.08-.17,.13m-8.56-32.39s-.01,.09-.06,.09c-.05,0-.1-.03-.12-.08-.02-.05,0-.09,.06-.09,.04,0,.1,.03,.12,.08m4.19-1.88c-3.95-2.02-7.94-3.61-11.86-5.81-.42-.24-.84-.47-1.26-.71,0,.03-.01,.06-.03,.08-.05,.1-.14,.17-.25,.22,.46,.28,.92,.57,1.37,.88,1.45,.5,2.9,1.04,4.22,1.98,.92,.64,1.64,1.39,2.38,2.13,1.16,.58,2.33,1.17,3.47,1.83,.05,.02,.08,.07,.08,.11,0,.04-.05,.06-.11,.04-.88-.32-1.77-.65-2.63-1.02,.05,.19,.03,.38-.08,.53-.12,.15-.3,.23-.51,.24l.51,.36c.1,.08,.15,.2,.09,.27-.06,.08-.18,.09-.29,.02-.69-.49-1.4-.95-2.11-1.41-.93-.46-1.84-.9-2.74-1.35,.06,.18,.07,.37,.02,.54h0l.41,.23c2.72,1,5.36,2.37,7.7,4.2,.05,.03,.07,.09,.04,.13-.02,.04-.08,.04-.12,0-.71-.54-1.44-1.06-2.19-1.53h0s0,.09-.06,.09c-.05,0-.1-.03-.12-.07-.02-.05,.01-.09,.06-.09-1.41-.87-2.89-1.61-4.4-2.22,1.3,.75,2.58,1.53,3.77,2.44,.17,.05,.34,.09,.5,.14,.04,.02,.08,.07,.07,.11,0,.04-.06,.06-.11,.04l-.14-.04c.23,.17,.3,.45,.17,.63-.15,.18-.45,.2-.68,.03-.68-.42-1.33-.82-1.99-1.23l-.24-.1-.27-.04c.98,.72,1.9,1.49,2.82,2.26,.08,.06,.12,.16,.07,.23-.04,.07-.15,.08-.24,.02-1.91-.92-3.8-1.89-5.69-2.85-.78-.05-1.56-.1-2.34-.15l.23,.14c1.96,1.13,4.14,1.3,6.11,2.38,.05,.02,.07,.08,.05,.11-.02,.04-.07,.05-.12,.02-.97-.5-2-.73-3.03-1.1-.86-.3-1.68-.56-2.51-.76,1.49,.77,3.08,1.24,4.59,2,.07,.02,.12,.08,.14,.14,.01-.02,.04-.03,.07-.02,.24,.02,.47,.08,.7,.16,.05,0,.09,.05,.08,.1,0,.04-.04,.06-.1,.05-.22-.07-.44-.14-.67-.15-.04,0-.07-.03-.09-.06-.03,.06-.1,.09-.18,.07-1.66-.41-3.24-1.12-4.85-1.71-.04,.04-.08,.08-.14,.1-.19,.09-.43,.05-.63-.09l-.14-.13c-.6-.45-1.18-.87-1.79-1.33-.17,0-.35-.04-.52-.11-.67-.1-1.31-.24-1.97-.38,.01,.06,.01,.12-.02,.18-.08,.13-.26,.16-.41,.08l-.24-.11c.2,.14,.41,.29,.62,.44,.03,.02,.06,.04,.08,.07,.25,.12,.49,.25,.75,.38,2.26,1.02,4.55,1.71,6.88,2.4,.04,0,.09,.04,.1,.08,0,.04-.03,.08-.08,.08-1.65-.15-3.22,.03-4.88-.33-1.97-.45-3.89-.88-5.8-1.4-1.85-.87-3.72-1.34-5.74-1.85-2.73-.7-5.22-1.51-7.84-2.26-1.01-.17-1.74-1.03-1.64-1.9,.06-.53,.42-.96,.93-1.17l-.24-.08-.37-.21c-.35-.2-.61-.5-.73-.84l-.18-.43c-.2-.78-.66-1.49-.8-2.28l.13-.25-.06-.1c-.2-.25-.3-.55-.29-.84l.1-.32c.14-.36,.35-.68,.63-.96,.03-.14,.08-.27,.17-.38-.09-.37-.09-.74,.14-1.09-.08-.12-.03-.26,.11-.31,.05-.02,.1-.02,.16-.01h0c-.04-.1-.05-.13-.1-.24-.09-.05-.15-.09-.15-.09q-.26-.12-.49-.24c-.18-.16-.27-.35-.27-.35q-.1-.64,0-.88l.06-.06c-.16-.13-.18-.14-.22-.18-.04-.06-.07-.12-.07-.12q.02-.14,0-.19c0-.06,.01-.1,.01-.1q.14-.12,.15-.17s.07-.06,.07-.06c.13-.02,.19-.02,.21-.02l-.03-.08,.06,.07s.03-.02,.07-.04c.13,.02,.2,.09,.28,.16-.01,.1-.09,.15-.2,.03-.05-.06-.11-.11-.15-.16h-.03c.18,.42,.18,.42,.18,.42l.09-.11,.02,.17v-.15l.11,.12-.12-.16q.3,.13,.43,.15c.13,.05,.25,.04,.26,.04,0-.05,0-.08,0-.08q.32,.14,.64,.28s.04,.08,.05,.11c.04-.03,.11-.04,.17-.01l.16,.07h.04v-.02l.16-.03h.04c.11-.03,.27-.06,.7-.14,.1,.04,.18,.09,.27,.14l-.07-.09c-.04-.06,.04-.18,.01-.2-.41-.3-.9-.49-1.37-.7-.09,.01-.17,0-.26,.03,0,0-.02,0-.02,0,.27,.22,.54,.43,.8,.64,.08,.05,.1,.14,.04,.2-.06,.05-.17,.05-.25,0-.42-.25-.88-.45-1.32-.67-.08,0-.15,.03-.23,0-.38-.11-.61-.43-.52-.71,.02-.2-.01-.44,.12-.59,.26-.27,.67-.32,1.08-.3l-.16-.14c-.64-.55-.66-1.33-.02-1.75,.64-.41,1.7-.31,2.35,.25l-.04-.18c.24,.07,.43,.19,.63,.32l-.37-.36c.69,.42,1.28,.9,1.71,1.48,.05,.06,.14,.11,.22,.17,.2,.07,.34,.2,.42,.35,.84,.36,1.61,.84,2.16,1.46,.29,.1,.56,.25,.75,.47h.01l-.12-.24c.21,.12,.27,.31,.45,.45v-.29c1.05,.5,2.24,.86,3.11,1.58,.03,.02,.07,.04,.11,.06,.49-.02,.99-.03,1.51,.14-.16-.09-.32-.18-.48-.28,.41,.03,.8,.09,1.2,.25,1.06,.43,2.08,1.32,2.35,2.21,2.05,.78,4.08,1.62,6.12,2.45,.11,.04,.17,.14,.15,.22-.03,.08-.13,.11-.23,.07-1.52-.45-3.02-.98-4.53-1.51,1.16,.66,2.3,1.35,3.5,1.97l.48,.2c.16,.07,.3,.16,.44,.27,1.54,.78,2.97,1.59,4.6,2.29,1.35,.56,2.57,1.08,4.05,1.69,1.99,.82,3.82,1.6,5.54,2.84,.24,.14,.37,.42,.27,.6-.09,.19-.37,.23-.62,.08m-15.93,50.78c-.25-.76-.51-1.48,.22-1.86,.59,.04,.85,.55,1.04,1.15-.43,.31-.86,.55-1.26,.71m-2.02-11.43s-.07-.19-.05-.29c-.12,.14-.25,.27-.38,.41,.13-.23,.24-.49,.27-.8,.19-.03,.32-.01,.43,.02,.18,.42-.15,.48-.28,.66m-7.4,10.35c-.39,.1-.78,.09-1.17,.05-.18-.29-.35-.76-.15-1.15,.37-.3,.67-.75,1.03-.74,0,.52-.27,.76-.46,.92,0,0,.81,.13,.88,.78-.04,.06-.08,.11-.13,.15m-1.64,0v-.04c.16-.2,.25-.07,.34,.08-.11-.01-.22-.02-.34-.04m-2.01-.71c.06-.09,.09-.19,.12-.29,.17,.01,.32,.05,.45,.15-.07,.27-.17,.46-.57,.14m-1.75-1.7s0-.04,0-.07c.02,.03,.03,.06,.05,.09l-.05-.02Zm1.46,2.45l.22,.18c-.24,.11-.48,.25-.74,.45-.15,1-.88,1.35-1.76,1.58,0-.07-.02-.14-.05-.19,0,.06,0,.13,0,.21-.09,.02-.18,.05-.28,.07l.11-.42c.08,.02,.12,.08,.16,.15,.05-.77,1.26-.7,1.72-1.39-.5-.92-.66,.32-1.05,.39-.2-.16-1.03-.22-1.07-1.02,.75-.41,.8-1.59,1.48-2.16,.1,.22,.1,.48-.37,.95,.05,.57,.65,.4,1.24,.27,.21-.04,.41-.08,.61-.09-.22,.24-.62,.19-.23,1.04m-3.12-48.35s.04-.04,.06-.06c.29,.18,.58,.39,.82,.57,.02,.72-.31,.72-.7,.55,.17-.43,.16-.85-.18-1.07m.07,50.72c-.24,.04-.47,.09-.71,.14,.19-.38,.75-.35,1.08-.41l.03,.19c-.13,.03-.26,.05-.4,.08m-3.36,1.22c-.18-.25-.77-.13-1.28-.08,.47-.88,.93-1.84,1.56-2.38,.43,1.13-.04,1.75-.28,2.45m-3.64-.51c-.13-.35-.41-.71-.19-.85,.83-.14,.79,.19,.92,.47-.23,.1-.47,.23-.72,.38m5.89-77.04c-.16,0-.33,0-.55,0-.5-.31-1.01-.56-1.53-.76-.01-.1-.02-.2-.01-.32,1.32-1.26,1.34,.78,2.09,1.09m.51-.05l-.02,.03s-.04,0-.05,0c.02,0,.05-.02,.07-.03m1.6-1.54c-.25,.45-.46,.95-.79,1.11-.25-.36-.35-.73-.28-1.07-.1,0-.16,.01-.25,.02l.09-.76h.13c.38,.23,.74,.46,1.09,.71m-1.34-4.38s-.08,.01-.1-.02c-.02-.03,0-.08,.04-.1,1.14-.63,2.28-1.26,3.48-1.92,.04-.02,.08-.01,.1,.02,.01,.03,0,.08-.04,.1-1.2,.66-2.34,1.28-3.48,1.91m22.26-24.71s-.02,.05-.04,.04c-.03,0-.05-.04-.06-.07,0-.03,.01-.05,.04-.04,.03,0,.05,.04,.06,.07m-29.18,24.52s.06-.06,.09-.05c.04,0,.06,.04,.05,.08-.01,.03-.05,.06-.09,.05-.03,0-.06-.05-.04-.08m8.93-2.64c-.05-.08-.07-.18-.07-.27-.35,.2-.72,.39-1.09,.57-.85,.79-1.71,1.58-2.82,2.11-.76,.37-1.52,.56-2.29,.77-.79,.58-1.59,1.17-2.42,1.71-.03,.03-.07,.03-.1,0-.03-.02-.03-.07,0-.1,.5-.51,1.03-1,1.57-1.46-.15-.04-.28-.14-.35-.29-.07-.15-.07-.32,0-.47l-.42,.21c-.09,.04-.19,.02-.22-.05-.04-.08,0-.17,.08-.21l1.69-.9c.64-.47,1.25-.92,1.86-1.36-.15-.04-.28-.11-.39-.22h0l-.3,.19c-1.62,1.5-3.45,2.81-5.49,3.74-.04,.02-.08,.01-.1-.02-.02-.03,0-.08,.04-.09,.61-.29,1.21-.6,1.79-.94h0s-.06-.04-.05-.08c.01-.03,.06-.06,.09-.05,.04,0,.06,.05,.05,.08,1.07-.65,2.08-1.39,3.02-2.2-.96,.6-1.94,1.18-2.97,1.65-.09,.1-.18,.2-.26,.3-.03,.02-.07,.03-.1,0-.02-.02-.02-.07,0-.09,.03-.02,.05-.05,.07-.08-.19,.09-.41,.03-.5-.15-.08-.18,0-.41,.2-.5,.5-.32,1.01-.61,1.52-.91l.15-.12,.12-.18c-.83,.39-1.68,.73-2.53,1.07-.07,.04-.15,.02-.19-.04-.03-.06,0-.14,.06-.18,1.27-.99,2.58-1.93,3.9-2.87,.29-.53,.59-1.07,.89-1.6l-.18,.1c-1.47,.9-2.31,2.38-3.72,3.35-.03,.03-.08,.02-.1-.01-.02-.03-.01-.07,.03-.09,.67-.49,1.18-1.13,1.78-1.7,.5-.48,.96-.95,1.38-1.46-1.05,.72-1.92,1.66-2.95,2.42-.04,.04-.1,.05-.15,.04,0,.02,0,.04,0,.06-.09,.16-.21,.3-.34,.44-.02,.03-.07,.04-.1,.01-.03-.02-.03-.06,0-.1,.13-.13,.24-.26,.32-.42,.02-.03,.05-.04,.07-.04-.04-.05-.03-.11,0-.16,.84-1.02,1.87-1.85,2.83-2.73-.02-.05-.03-.1-.03-.15,0-.17,.11-.33,.28-.41l.14-.04c.52-.23,1.02-.45,1.56-.68,.06-.12,.15-.23,.26-.32,.3-.42,.62-.82,.95-1.22-.05-.02-.09-.05-.12-.09-.06-.11-.02-.25,.09-.33l.16-.12c-.17,.08-.35,.16-.53,.24-.03,.01-.05,.02-.08,.02-.18,.12-.35,.23-.53,.36-1.51,1.13-2.78,2.46-4.05,3.84-.02,.03-.06,.05-.1,.04-.03-.02-.05-.06-.03-.09,.66-1.12,1.05-2.33,1.88-3.35,.99-1.2,1.97-2.36,3.02-3.47,1.28-.9,2.28-1.99,3.39-3.15,1.26-1.3,2.53-2.42,3.81-3.59-.03,0-.06-.02-.08-.03,.03-.08,.06-.16,.11-.24h.26c.15-.15,.3-.3,.46-.44,.28-.33,.67-.48,1.07-.5-.02-.05-.06-.1-.07-.16-.14-.5,.1-.84,.53-.76-.04-.03-.07-.06-.11-.09,.08-.06,.18-.06,.28-.06-.09-.02-.18-.04-.27-.06,.35-.03,.72,.01,1.14,.18,.04,.02,.09,0,.13,.01,.07-.04,.16-.03,.26,.02,.33-.14,.72-.18,1.17-.07,.1-.07,.22-.1,.38-.06h0c-.06-.03-.11-.06-.17-.09,.1-.02,.22,.06,.33,.06-.06-.06-.11-.11-.17-.17,.44-.16,.77-.51,1.31-.5,.01,0,.03-.01,.05-.01,.04-.24,.07-.48,.22-.62-.07,.02-.14,.05-.21,.07,.05-.17,.13-.32,.26-.42,.36-.26,.97-.28,1.54,.06,.62-.59,1.25-1.17,1.82-1.82,.03-.04,.09-.02,.14,.03,.05,.05,.07,.12,.04,.16-.32,.57-.73,1.06-1.15,1.54,.48-.23,.96-.46,1.39-.78,.05-.05,.09-.1,.14-.15,.05-.05,.11-.08,.18-.1,.53-.42,1.06-.79,1.49-1.37,.37-.49,.67-.94,1-1.48,.45-.76,.85-1.47,1.49-1.99,.07-.08,.23-.05,.35,.09,.12,.13,.16,.31,.09,.4-.99,1.5-1.88,3.08-3.32,4.12-.16,.11-.31,.22-.47,.33,.02,.02,.04,.03,.05,.05,.06,.08,.1,.16,.13,.24,.18-.11,.38-.22,.58-.31,.34-.54,.68-1.07,1.25-1.39,.39-.21,.84-.3,1.28-.4,.33-.41,.65-.84,1-1.24,0-.02,.04-.02,.06,0,.03,.02,.04,.06,.03,.08-.14,.4-.32,.76-.52,1.11,.12,.05,.23,.14,.33,.27,.1,.13,.16,.28,.17,.4,.07-.05,.14-.1,.2-.15,.04-.03,.12,0,.17,.06,.05,.07,.06,.15,.02,.18-.27,.21-.55,.41-.83,.61-.26,.33-.54,.65-.82,.95,.11,.05,.23,.13,.34,.23h0s.1-.08,.14-.13c.24-.42,.63-.67,.92-1.04,.22-.28,.42-.6,.67-.84,0,.02,.02,.03,.03,.04,.01-.01,.02-.03,.04-.04,0-.01-.02-.03-.03-.04h0c.07-.07,.15-.12,.22-.18,.2-.18,.31-.45,.53-.61,.02-.02,.05,0,.08,.03,.02,.03,.03,.07,.01,.08-.22,.15-.42,.33-.62,.5-.07,.06-.12,.15-.19,.22,.01,.01,.03,.02,.03,.04,0,.03-.02,.04-.04,.04-.01,0-.02-.02-.03-.03-.26,.25-.49,.52-.71,.8-.2,.25-.43,.48-.6,.76,.45-.41,.92-.81,1.44-1.14,.02-.08,.04-.16,.07-.24,0-.02,.04-.02,.07,0,.02,.02,.04,.06,.03,.08,0,.02-.01,.04-.02,.06,.1-.06,.27,0,.39,.16,.12,.16,.14,.34,.04,.41-.23,.23-.47,.45-.71,.65-.02,.03-.04,.06-.06,.09,0,.05-.01,.09-.02,.14,.44-.25,.89-.49,1.33-.71,.03-.03,.1,0,.14,.05,.04,.05,.05,.12,.02,.15-.51,.76-1.07,1.46-1.69,2.12-.04,.42-.07,.84-.12,1.26,.03-.02,.06-.04,.09-.06,.75-.6,.85-1.78,1.47-2.5,.01-.02,.05,0,.07,.02,.02,.03,.03,.06,.01,.08-.28,.38-.42,.87-.65,1.31-.18,.37-.36,.71-.49,1.11,.51-.51,.8-1.23,1.25-1.8,.01-.03,.05-.04,.09-.02-.01-.02-.02-.03-.02-.05,0-.13,.04-.24,.08-.35,0-.02,.03-.03,.06,0,.03,.02,.04,.05,.04,.08-.04,.1-.07,.21-.07,.33,0,.02-.02,.03-.04,.03,.04,.04,.06,.1,.05,.14-.22,.81-.67,1.42-1.07,2.08,.03,.04,.05,.08,.06,.13,.06,.15,.02,.27-.07,.31l-.08,.02c-.3,.13-.59,.27-.9,.4,0,.09-.04,.17-.09,.24-.1,.31-.2,.62-.33,.9,.04,.02,.08,.05,.11,.09,.08,.1,.09,.22,.02,.26-.03,.03-.06,.05-.09,.08,.1-.04,.21-.09,.32-.13,.01,0,.03-.01,.05,0,.1-.07,.19-.15,.28-.23,.77-.76,1.25-1.77,1.69-2.83,0-.03,.02-.04,.05-.03,.03,.02,.05,.05,.05,.08-.09,.9,0,1.9-.28,2.67-.35,.92-.74,1.78-1.22,2.58-.71,.57-1.18,1.34-1.76,2.1-.49,.65-1.04,1.2-1.6,1.71-.15,.23-.35,.42-.61,.54-.06,.05-.12,.1-.17,.15l.06,.02c-.1,.08-.2,.14-.31,.19-.02,.03-.06,.04-.09,.06l.34-.06c-.56,.25-1.12,.42-1.7,.42-.06,0-.13,.04-.2,.06-.12,.1-.27,.13-.4,.12-.57,.39-1.2,.66-1.84,.74-.18,.15-.39,.25-.61,.28h-.01l.22,.04c-.16,.08-.32,.03-.49,.09l.2,.14c-.74,.46-1.43,1.09-2.26,1.34-.02,.01-.05,.03-.08,.04-.16,.34-.33,.69-.64,.96,.12-.07,.24-.13,.37-.2-.17,.27-.35,.5-.61,.69-.69,.52-1.68,.8-2.41,.58-1.27,1.02-2.53,2.03-3.86,3.11-.07,.06-.16,.06-.21,0-.04-.05-.04-.14,.03-.2,.84-.86,1.74-1.66,2.64-2.45-.87,.49-1.76,.97-2.61,1.53l-.31,.24c-.1,.08-.22,.14-.34,.19-1.08,.73-2.14,1.36-3.18,2.21-.88,.73-1.66,1.37-2.54,2.13-1.23,1.06-2.37,2.04-3.79,2.76-.18,.12-.41,.09-.51-.06-.1-.15-.04-.37,.13-.48,2.68-2.01,5.11-4.17,8.01-5.94,.31-.19,.62-.38,.93-.56-.02-.02-.03-.04-.05-.06m-5.41-38.33c.15,.08,.31,.17,.49,.28,0-.07-.02-.14-.04-.21,.07,.03,.14,.07,.21,.11l-.23,.28,.89,.56c-.1-.07-.2-.04-.29,0-.33-.33-.78-.62-1.47-.84,.16-.12,.31-.17,.44-.19m2.76,2.26c-.24,.45-.45,.92-.6,1.39-.31-.85-.39-1.75-.98-2.47,.65,.14,1.14,.59,1.59,1.08m1.6,1.21c-.08,.33-.12,.67-.12,1.01-.02,.05-.03,.1-.05,.15-.78,.78-.94,.4-1.19-.05,.05-.24-.03-.54-.59-1.15,.16-.42,.35-.72,.55-.97,.42,.46,.85,.87,1.4,1.01m16.61,12.1s.05,0,.07,.03c.02,.03,.03,.06,0,.08-.57,.38-1.16,.74-1.78,1.07-.02,0-.05,0-.07-.04-.02-.03-.02-.06,0-.08,.61-.33,1.2-.69,1.78-1.06m6.47,50.16s-.08,.04-.13,0c-1.48-.91-2.96-1.82-4.49-2.77-.05-.03-.07-.08-.04-.12,.02-.03,.08-.04,.14-.01,1.53,.95,3.01,1.86,4.49,2.78,.05,.03,.07,.08,.05,.11m7.05-46.04s.02-.02,.03-.02c-.03,.1-.04,.2,.03,.28-.06,.02-.1,.03-.15,.04-.02-.11-.04-.22-.05-.33,.05,.01,.09,.02,.14,.04m.09-.07c.33-.26,.09-.43,.68-.47-.2,.22-.29,.54-.57,.75-.04,.01-.1,.03-.13,.04,.01-.1,.01-.21,.02-.32m-53.98,105.94c-.12-.46,.48-.39,.96-.49,.2,.12,.43,.22,.64,.35-.57,0-1.15,0-1.6,.13m-6.37-59.77s.02,.05,0,.06c-.03,.02-.08,0-.11-.01-.03-.02-.03-.05,0-.06,.03-.01,.08,0,.11,.01m-1.95,37.58s-.02-.08,.01-.1c.03-.03,.08-.02,.11,.01,.02,.03,.02,.08-.01,.1-.03,.02-.08,.02-.11-.01m8.18-19.84c-.29,.79-.34,1.67-.85,2.35-.01,.03-.02,.06-.03,.08,.14,.34,.28,.7,.24,1.09,.06-.13,.1-.24,.15-.37,.08,.29,.12,.58,.06,.87-.15,.81-.69,1.65-1.47,1.96-.15,1.57-.31,3.14-.38,4.72,0,.08-.06,.14-.15,.15-.07,0-.14-.07-.15-.15-.11-1.17-.09-2.32-.05-3.47-.28,.92-.55,1.87-.73,2.82,0,.12,0,.26-.02,.38,0,.12-.05,.24-.09,.36-.19,1.23-.41,2.4-.4,3.7,.01,1.11,.05,2.07,.15,3.19,.13,1.56,.28,3,.07,4.48-.01,.21-.19,.37-.39,.36-.22,0-.38-.17-.37-.38-.18-3.21-.5-6.38,.08-9.62,.07-.35,.13-.69,.2-1.03-.03,0-.06,0-.08,0-.11-.02-.21-.06-.3-.14-.08,.39-.18,.78-.3,1.16,.07,1.13,.14,2.27-.16,3.42-.21,.8-.56,1.48-.89,2.19-.01,.96,.01,1.91-.01,2.89,0,.04-.02,.07-.06,.09-.04,0-.08-.02-.09-.06-.16-.7-.26-1.4-.33-2.09-.14,.08-.32,.12-.5,.08-.19-.04-.35-.15-.45-.29-.03,.15-.06,.31-.08,.46-.02,.1-.11,.16-.19,.14-.11-.02-.17-.09-.15-.19,.11-.62,.21-1.25,.32-1.86,0-.77,.03-1.53,.07-2.29-.14,.08-.3,.14-.48,.15-.02,.11-.03,.24-.04,.35,.2,2.2,.18,4.41-.25,6.58,0,.04-.05,.07-.09,.06-.05,0-.09-.03-.08-.08,.14-.65,.23-1.32,.28-1.98-.01,.02-.02,.02-.04,.02-.03,0-.04-.01-.06-.02-.03-.04-.02-.08,0-.11,.04-.02,.08,0,.11,.02,.11-1.24,.1-2.47,.02-3.72-.12,1.13-.26,2.24-.52,3.34,.04,.13,.08,.27,.11,.39,0,.04-.03,.08-.07,.09-.04,0-.07-.02-.07-.06-.02-.04-.02-.07-.04-.11-.04,.21-.24,.33-.48,.3-.22-.05-.38-.25-.33-.46,.03-.59,.1-1.18,.18-1.76l-.02-.2c-.02-.07-.05-.13-.07-.2-.23,.89-.48,1.78-.73,2.66,0,.08-.08,.14-.15,.12-.08,0-.14-.08-.14-.15-.08-1.63-.06-3.28,.03-4.91-.27-.58-.54-1.16-.8-1.75-.02,.06-.03,.13-.04,.2-.26,1.76,.49,3.39,.45,5.12,0,.05-.03,.08-.08,.07-.04,0-.08-.03-.07-.08,0-.85-.24-1.66-.35-2.51-.09-.72-.17-1.38-.34-2.06-.11,1.31,.14,2.61,.14,3.92,0,.07-.02,.11-.07,.14,.03,.01,.04,.02,.06,.04,.08,.18,.14,.37,.17,.56,.02,.04,0,.07-.05,.09-.04,.02-.08,0-.1-.06-.03-.17-.08-.35-.17-.52-.02-.03,0-.07,0-.08-.07,0-.13-.04-.15-.11-.37-1.32-.41-2.69-.51-4.04-.06-.02-.11-.04-.16-.08-.16-.12-.22-.31-.15-.49l.06-.14c.18-.56,.36-1.12,.54-1.69-.05-.13-.09-.27-.08-.42-.14-.54-.27-1.06-.35-1.6-.05,.03-.11,.04-.16,.03-.15-.03-.25-.16-.22-.3,0-.07,.02-.14,.02-.21-.07,.18-.13,.38-.21,.58,0,.03,0,.06-.04,.07-.04,.22-.07,.44-.08,.66-.17,1.98,.11,3.9,.48,5.82,.03,.02,0,.08-.03,.1-.03,.02-.08,0-.1-.03-.56-1.26-1.38-2.4-1.67-3.77-.35-1.64-.6-3.24-.74-4.88,.25-1.66,.13-3.25,.12-4.97-.01-1.56,.1-3.04,.26-4.52h0c.04-.44,.11-.84,.15-1.27v-.04c-.03-.32,0-.67,.13-.99,0-.04,0-.08,0-.11,.1-.64,.57-1.14,1.2-1.28,.02-.03,.04-.04,.06-.06h0l-.2,.04c.06-.1,.24-.13,.31-.2-.08,0-.18-.01-.27-.02,.25-.47,.25-1.03,.71-1.46l.04-.04c-.16-.23-.31-.47-.31-.71-.03,.08-.07,.16-.12,.23-.08-.18-.14-.37-.1-.57,.09-.5,.6-.99,1.35-1.15,.07-1,.15-1.99,.12-2.99,0-.05,.06-.09,.14-.09,.08,0,.15,.06,.16,.11,.17,.74,.22,1.47,.24,2.21,.22-.58,.45-1.16,.56-1.76,0-.08,0-.16,0-.25,0-.08,.03-.15,.08-.23,.13-.78,.28-1.51,.2-2.34-.07-.71-.17-1.33-.32-2.04-.21-1.01-.44-1.92-.3-2.86-.01-.14,.16-.23,.36-.21,.21,0,.38,.13,.39,.27,.34,2.05,.83,4.09,.42,6.12-.05,.22-.09,.45-.14,.65,.03,0,.06,0,.08,0,.11,.02,.21,.05,.29,.1,.06-.24,.15-.48,.24-.72-.13-.73-.26-1.45-.03-2.17,.16-.49,.48-.92,.77-1.35-.04-.61-.12-1.22-.14-1.83,0-.03,.02-.06,.06-.06,.04,.01,.08,.02,.09,.05,.2,.45,.32,.9,.44,1.36,.13-.05,.31-.07,.49-.03,.18,.03,.35,.11,.46,.21,.02-.1,.04-.19,.06-.29,.02-.06,.1-.09,.18-.08,.11,.02,.17,.08,.16,.14-.06,.39-.14,.78-.22,1.17,.03,.49,.06,.98,.06,1.46,.13-.05,.29-.07,.47-.07,0-.07,.01-.15,.02-.22-.32-1.41-.42-2.82-.11-4.19,0-.03,.04-.04,.09-.04,.04,.01,.07,.04,.06,.05-.09,.42-.15,.83-.17,1.24,.03,0,.08,0,.1,.02,.03,.02,.03,.05,0,.07-.04,.02-.08,0-.11-.02-.04,.78,.02,1.57,.17,2.36,.06-.7,.14-1.41,.33-2.09-.04-.09-.08-.17-.13-.26,0-.01,.02-.04,.06-.05,.04,0,.08,.02,.09,.05,.02,.02,.03,.05,.03,.06,.04-.13,.24-.2,.46-.16,.24,.03,.39,.19,.36,.31,0,.38-.03,.75-.08,1.11,0,.04,.02,.09,.02,.13,.03,.04,.06,.09,.09,.13,.17-.56,.37-1.11,.57-1.66,.01-.04,.07-.08,.16-.07,.08,0,.14,.06,.13,.11,.17,1.05,.25,2.08,.24,3.12,.29,.38,.6,.77,.89,1.17l.03-.13c.17-1.11-.68-2.2-.73-3.29,0-.03,.04-.04,.08-.05,.04,0,.07,.03,.07,.05,.06,.54,.32,1.08,.48,1.63,.13,.45,.25,.9,.46,1.33,.02-.82-.28-1.67-.35-2.51-.02-.02,0-.07,.06-.09-.03,0-.04-.01-.06-.02-.09-.12-.16-.23-.21-.36-.01-.03,0-.04,.05-.05,.04,0,.07,0,.1,.03,.04,.12,.1,.24,.19,.35,.01,.01,0,.04,0,.04,.07,0,.13,.04,.16,.08,.44,.86,.54,1.74,.73,2.62,.05,0,.1,.03,.15,.05,.16,.08,.24,.21,.18,.33l-.05,.09c-.16,.34-.28,.69-.45,1.04,.06,.09,.1,.18,.1,.28,.17,.34,.32,.68,.43,1.03,.04-.02,.11-.02,.16-.01,.15,.03,.24,.13,.22,.21,0,.04,0,.08,0,.12,.04-.11,.1-.23,.16-.36,.01-.02,.02-.03,.04-.04,.03-.14,.04-.28,.05-.42,.06-1.25-.32-2.5-.8-3.75-.01-.01-.02-.04,.02-.06,.04,0,.08,0,.11,.03,.62,.84,1.5,1.6,1.86,2.49,.43,1.06,.77,2.09,.99,3.15-.16,1.04,.05,2.06,.16,3.16l.02,.27c.04,.65,.04,1.28,0,1.9,.07,.03,.12,.11,.08,.18,0,.56-.08,1.15-.26,1.7,0,.03,0,.04,0,.07,0,.05,0,.1-.01,.15,.02,.25-.11,.45-.33,.6-.18,.33-.41,.62-.7,.88-.04,.22-.14,.42-.32,.57h0c.08-.02,.14-.05,.22-.1-.08,.16-.25,.23-.35,.36,.1,0,.19,0,.29-.01m-3.19,14.78s-.05,.07-.09,.06c-.04,0-.07-.05-.06-.09,.26-1.24,.54-2.47,.87-3.7,.01-.04,.05-.06,.1-.05,.04,.01,.06,.05,.06,.09-.33,1.22-.62,2.45-.88,3.69m-14.01-49.85c.36-.33,.73-.63,1.13-.88,0-.01,.02-.03,.03-.05,.06,0,.11-.02,.17-.01,.47,.63,2.04,.44,1.76,1.33-.47-.05-1.4-.63-1.29-.11,.73,.33,1.75,.46,2.65,.47-.54,.37-.84,1.16-.62,1.91-.22,.33-.9-.04-1.52-.31-.07-.22-.15-.43-.22-.62-.74-.31-1.54-.96-2.1-1.72m1.89,6.4h0m-.77-1.04l-.15,.09c-.03-.31,.08-.52,.41-.52,.04,.05,.07,.11,.1,.17,.08,.43,.14,.81,.1,1.14h.01c-.08,.07-.13,.26-.29,.31-.09-.2-.18-.42-.25-.64,.11-.14,.24-.29,.05-.55m.26,2.7c-.11-.37-.37-.73-.93-1.13-.07-.37,.13-.37,.41-.28l.04,.28c.14-.59,1.04,.72,.97,.97-.16,.07-.32,.13-.48,.16m-1.67,1.88c.09-.2,.08-.33,.01-.44,.23-.07,.69,.14,1.09,.14,.1,.21,.15,.45,.21,.61l-1.32-.31Zm4.54-8.69c.16-.12,.34-.17,.47-.3,.19,.29,.31,.68,.16,.86-.16-.32-.39-.41-.63-.57m1.33,1.21c-.02,.17-.01,.34,.02,.54-.92,.22-.77-.71-1.62-1.27,.04-.23,.12-.35,.22-.44,.09,.85,.74,.99,1.38,1.17m3.94-4.33c.63-.45,.72-1.42,1.42-1.42,.1,.15,.15,.29,.12,.41-.58,.47-.11,1.48-1.54,1.01m-.77-.13c.05,.1,.1,.21,.18,.34,.22-.01,.39-.09,.54-.18l.4,.7c-.79-.89-.61,.13-.92,.19-.63-.44-.25-.67-.2-1.05m1.14-3.2c0,.06-.01,.11-.11,.15-.03,0-.07-.02-.1-.02,.07-.04,.14-.08,.21-.13m-.51-1.47s.08-.03,.12-.05c.39,.18,.74,.29,1.05,.33-.19,.12-.31,.25-.41,.37-.04-.02-.08-.04-.12-.06-.13-.15-.3-.28-.51-.39-.05-.06-.09-.13-.12-.2m.28,.9c-.2-.08-.37-.22-.43-.18-.23,.08,.24,.32,.51,.54-.07,.09-.14,.19-.24,.29-.18-.04-.36-.1-.48-.25-.23,.29-.1,.39,.07,.64-.09,.08-.19,.16-.31,.24,.11-.4-.11-.98-.57-1.45,.43-.17,.35-.48,.93-.51,.08,.19,.28,.43,.51,.68m-3.3,26.02s.07,.03,.06,.06c-.19,.78-.4,1.55-.66,2.31-.01,.02-.05,.04-.09,.03-.04,0-.07-.04-.06-.06,.26-.76,.48-1.53,.67-2.3,0-.02,.05-.04,.08-.03m2.05-22.33c-.12-.09-.23-.08-.34-.03-.55-.35-1.51-.65-1.74-1.36-.82-1.11,.39-.85,.38-1.44,1.07,.12,.18,.83,.4,1.28l.46-1.61c.82,.04,.91,.94,.5,1.21,.42,0,.64-.18,.72-.44,.11-.08,.21-.15,.32-.23,.1,.14,.2,.32,.26,.6,.08-.12,.29-.1,.52,0l.18,.15c-.72-.11-.21,.62-.37,.97-.35,0-.3-.28-.34-.49-.24,.42-.71,.58-.7,1.06-.11-.18-.3-.39-.64-.65-.45,.25-.83-.31-1.18-.77-.15,.52,1.06,1.06,1.59,1.76m3.94-5.64s.07-.01,.1-.01c0,.02,0,.05,0,.08-.03-.02-.06-.04-.09-.06m-1.05,1.78c-.02,.06-.03,.12-.06,.18-.06-.03-.1-.06-.14-.09,.07-.03,.13-.06,.2-.1m1.5-.61c-.1,.12-.22,.23-.3,.38-.23,.05-.4,0-.54-.08,.28-.11,.56-.21,.84-.3m-.89-.1c.18-.13,0-.21,.18-.35-.17,.04-.32,.09-.47,.13-.25-.18-.39-.38-.46-.59,.17-.06,.35-.11,.53-.16,.05,.18,.1,.36,.11,.51,.35,.22,.39-.08,.56-.28-.02,.05-.03,.11-.07,.16l.41-.06c.06,.08,.11,.15,.14,.21-.06,.3-.2,.55-.94,.41m-11.78-25.28c-.48-2.14-.91-4.29-1.34-6.45-.02-.11,.02-.22,.1-.25,.08-.02,.17,.04,.19,.15,.47,1.52,.85,3.06,1.25,4.61-.09-1.33-.15-2.66-.3-4.01l-.1-.51c-.03-.17-.03-.34-.02-.51-.2-1.72-.32-3.35-.64-5.1-.28-1.44-.53-2.74-.83-4.31-.41-2.11-.77-4.07-.7-6.18-.02-.28,.14-.54,.35-.56,.21-.03,.39,.19,.41,.47,.5,4.41,1.38,8.61,1.71,13.1,.03,.49,.07,.96,.1,1.44,.03,0,.05-.02,.08-.02,.11-.01,.22,.02,.32,.09-.02-.54-.03-1.08-.02-1.63-.38-1.48-.74-2.99-.68-4.61,.03-1.12,.25-2.13,.46-3.16-.16-1.29-.31-2.59-.39-3.91-.01-.05,0-.11,.05-.12s.08,.01,.09,.06c.22,.91,.44,1.83,.6,2.76,.13-.15,.3-.23,.49-.22,.19,.01,.36,.12,.48,.29l.02-.62c0-.13,.08-.23,.18-.23,.1,0,.18,.1,.18,.23-.03,.85-.02,1.69-.01,2.54,.13,1.03,.26,2.03,.39,3.02,.12-.15,.27-.26,.44-.32h0l-.04-.47c-.67-2.82-.99-5.78-.76-8.74,0-.06,.04-.1,.08-.1,.04,0,.08,.05,.07,.1-.06,.89-.09,1.78-.07,2.67h0s.08-.04,.11,0c.03,.03,.03,.1,0,.14-.03,.04-.08,.04-.11,0,.05,1.66,.26,3.3,.58,4.9-.09-1.5-.15-3-.05-4.49-.05-.17-.11-.33-.16-.49,0-.04,.02-.1,.06-.12,.04-.01,.08,.02,.09,.07,.01,.04,.03,.09,.04,.14,.02-.28,.21-.5,.43-.49,.23,.02,.41,.26,.4,.56,.02,.79,.05,1.56,.08,2.34l.04,.25,.11,.25c.06-1.21,.19-2.41,.33-3.6,0-.1,.07-.19,.15-.19s.15,.08,.15,.19c.29,2.1,.52,4.21,.77,6.32,.39,.67,.78,1.35,1.17,2.03v-.27c-.15-2.26-1.21-4.17-1.4-6.41,0-.06,.03-.1,.07-.11,.04,0,.08,.03,.08,.09,.12,1.09,.5,2.07,.75,3.14,.22,.88,.46,1.71,.76,2.51-.18-1.66-.67-3.26-.87-4.93-.02-.07,0-.15,.04-.19-.02,0-.04-.02-.06-.04-.11-.21-.19-.44-.26-.67-.02-.04,0-.1,.04-.12,.04-.02,.08,0,.1,.05,.06,.23,.13,.44,.25,.64,.02,.04,.01,.08,0,.11,.07-.01,.13,.03,.16,.11,.57,1.61,.86,3.32,1.25,4.99,.06,0,.11,.03,.16,.06,.18,.11,.28,.33,.27,.58l-.03,.19c-.04,.75-.08,1.46-.12,2.23,.09,.14,.16,.31,.2,.5,.28,.61,.53,1.23,.77,1.85,.04-.04,.1-.08,.16-.08,.15,0,.28,.13,.29,.3l.04,.26c0-.25,.01-.5,.02-.76,0-.04,0-.07,.01-.1-.03-.27-.06-.55-.1-.83-.4-2.45-1.08-4.74-1.8-7.06-.02-.04-.02-.1,.01-.13,.04-.02,.08-.02,.1,.02,.78,1.46,1.81,2.67,2.42,4.26,.71,1.89,1.42,3.72,2.04,5.61,.3,2.02,.94,3.84,1.63,5.81,.92,2.66,1.63,5.19,2.45,7.79,.41,.94,.1,2.02-.68,2.42-.48,.24-1.03,.18-1.49-.13l.07,.25,.03,.42c.02,.4-.08,.78-.29,1.07l-.26,.39c-.54,.59-.88,1.38-1.46,1.93l-.28,.03-.05,.1c-.1,.31-.29,.56-.54,.71l-.32,.09c-.38,.08-.76,.09-1.15,0-.13,.06-.27,.08-.41,.07-.26,.28-.57,.49-.99,.49-.06,.13-.2,.17-.32,.08-.04-.03-.08-.08-.1-.13h0c-.06,.09-.08,.11-.14,.22,0,.1,.01,.18,.01,.18l.08,.54c-.04,.24-.14,.42-.14,.42q-.48,.43-.73,.49l-.08-.02c-.02,.21-.02,.22-.02,.28-.02,.07-.06,.12-.06,.12q-.12,.06-.16,.11s-.09,.04-.09,.04q-.18-.05-.22-.03s-.09-.03-.09-.03c-.09-.1-.12-.14-.14-.16l-.04,.07s0-.04,.02-.09l-.07-.03c-.06-.12-.03-.22-.01-.32,.09-.04,.17,0,.14,.15-.02,.07-.04,.15-.05,.21h.01v.02c.25-.38,.25-.38,.25-.38h-.14l.13-.13-.13,.09,.04-.16-.07,.19q-.06-.32-.11-.44c-.03-.13-.1-.23-.11-.24-.04,.03-.07,.04-.07,.04q-.06-.34-.12-.68s.04-.07,.07-.11c-.05-.02-.1-.07-.11-.13l-.04-.17-.03-.03h-.01s-.08-.08-.12-.11l-.03-.02h0c-.08-.08-.19-.2-.5-.52-.02-.1-.02-.21-.03-.3l-.04,.1c-.03,.07-.17,.06-.17,.09-.03,.55,.09,1.11,.19,1.66,.03,.02,.06,.04,.1,.05v-.03s.05,.04,.08,.06c.03-.35,.06-.7,.09-1.02,0-.1,.06-.16,.14-.14,.08,.02,.14,.11,.14,.21,.03,.49,.11,.98,.17,1.47,.04,.07,.1,.11,.13,.19,.12,.38-.02,.75-.31,.82-.18,.09-.36,.25-.56,.22-.38-.07-.63-.38-.85-.73l-.03,.21c-.1,.84-.75,1.29-1.45,.99-.7-.3-1.2-1.25-1.09-2.1l-.12,.13c-.08-.24-.08-.47-.08-.7l-.1,.51c-.03-.81,.04-1.57,.28-2.24,.03-.08,.01-.18,.02-.27-.05-.21-.02-.39,.06-.54-.16-.9-.19-1.81,.02-2.6-.08-.3-.1-.61-.02-.89v-.02l-.14,.24c-.01-.24,.11-.4,.12-.62l-.24,.15c-.16-1.15-.52-2.33-.4-3.45,0-.04,0-.08,0-.12-.29-.4-.57-.81-.72-1.33,.01,.19,.02,.36,.03,.55-.2-.36-.37-.72-.45-1.14-.23-1.12-.04-2.47,.54-3.18m-1.6-12.26c0-.05,.03-.1,.07-.1,.04,0,.08,.05,.08,.11,.06,1.73,.11,3.47,.17,5.27,0,.06-.03,.1-.07,.1-.04,0-.08-.05-.08-.11-.06-1.8-.11-3.54-.16-5.27m.65,57.38c-.05,.34-.11,.64-.18,.94-.79-.29-1.55-.67-2.28-1.16v.02s-.04-.03-.04-.04c-.06-.04-.13-.05-.19-.1-.05-.1-.09-.2-.14-.31,.15,.14,.26,.29,.33,.4,.01,0,.03,.01,.04,.02l.34-.64c.17,.35,.57,.69,.75,1.04,.59-.05,0-.96,.55-.94,.43,.69-.66,.46,.1,1.35,.31-.23-.17-1.09,.37-1.09,.3,.26,.4,.43,.42,.58-.02-.03-.05-.05-.07-.08m-3.9-81.13c.14-.08,.29-.17,.43-.25,.26,.06,.41-.08,.46,.44-.25-.1-.61-.08-.89-.19m1.43-.9h0Zm.81,47.98h.03s-.03,.02-.05,.03l.02-.03m4.98-31.13s-.08,.04-.11,0c-.03-.03-.03-.1,0-.14,.03-.04,.08-.04,.11,0,.03,.04,.03,.1,0,.14m.1-20.78c-.03,.19-.08,.39-.18,.57-.19-.08-.44-.18-.65-.24,.26-.12,.54-.23,.84-.33m-8.24,5.31c.09-.04,.17-.08,.25-.13,.05,.14,.14,.29,.27,.42-.19,.18-.37,0-.53-.3m.24,47.71c-.01-.05-.03-.11-.06-.16,.04,.03,.06,.08,.06,.16h0m-.58,.56s-.04-.06-.05-.09c.02-.04,.04-.08,.05-.12,.04-.01,.1-.02,.19-.01,0,0,.01,.01,.02,.02-.07,.07-.14,.13-.2,.19m-32.18,22.35s-.02-.08,.01-.11c.04-.03,.09-.02,.12,.01,.03,.04,.03,.08-.01,.11-.03,.02-.09,.02-.12-.01m31.97,5.73s-.05,.07-.05,.07c-.11,.04-.15,.06-.17,.07l.04,.07s-.02-.02-.06-.05l-.05,.05c-.11,0-.18-.05-.26-.11,0-.1,.06-.16,.16-.07,.05,.04,.11,.09,.15,.12h.02c-.22-.38-.22-.38-.22-.38l-.06,.12-.05-.17,.02,.15-.11-.1,.13,.14q-.28-.07-.39-.07c-.11-.02-.21,0-.23,.01,0,.05,0,.08,0,.08q-.29-.07-.58-.15s-.05-.07-.06-.1c-.03,.04-.09,.06-.14,.05l-.15-.03-.03,.02h0c-.05,.04-.09,.06-.13,.08l-.03,.02h0c-.09,.04-.22,.11-.57,.28-.09-.02-.17-.05-.25-.08l.07,.07c.04,.05,0,.18,.02,.19,.4,.2,.83,.29,1.26,.41,.07-.03,.14-.04,.2-.08,0,0,.02-.01,.03-.02-.26-.16-.51-.32-.78-.47-.08-.03-.1-.12-.07-.18,.04-.07,.14-.09,.21-.05,.42,.17,.87,.28,1.3,.43,.03,0,.03-.04,.06-.04h0s.03-.04,.05-.04c.34,.04,.58,.3,.55,.6,0,.21,.08,.43-.02,.6-.18,.32-.51,.44-.85,.51l.15,.11c.62,.41,.75,1.18,.28,1.71-.46,.53-1.35,.64-1.97,.22l.06,.16c-.21-.02-.39-.1-.57-.18l.37,.27c-.63-.26-1.2-.6-1.65-1.07-.05-.05-.14-.08-.21-.12-.18-.02-.31-.12-.41-.24-.76-.16-1.48-.44-2.05-.9-.26-.02-.51-.1-.71-.27h-.01l.15,.21c-.19-.06-.29-.24-.46-.32l.05,.28c-.96-.23-2.01-.23-2.88-.69-.03,0-.07-.02-.1-.03-.4,.16-.8,.32-1.26,.31,.15,.04,.3,.08,.46,.12-.34,.09-.68,.15-1.03,.11-.96-.1-2.01-.62-2.45-1.38-1.87-.08-3.74-.19-5.61-.21-.1,0-.18-.07-.18-.15,0-.08,.07-.15,.17-.15,1.36-.14,2.72-.16,4.08-.16-1.12-.24-2.24-.49-3.39-.64h-.45c-.15-.01-.29-.05-.43-.1-1.48-.16-2.87-.36-4.4-.34-1.3,.02-2.45,.06-3.76,.15-1.84,.12-3.53,.25-5.31-.02-.24,0-.44-.19-.43-.4,0-.21,.2-.37,.44-.36,3.79-.09,7.51-.38,11.35,.15,.41,.06,.82,.12,1.23,.18,0-.03,0-.06,0-.08,.01-.11,.06-.21,.14-.29-.46-.08-.92-.18-1.38-.29-1.33,.09-2.66,.17-4.03-.12-.94-.21-1.77-.56-2.62-.91-1.13-.02-2.26-.02-3.4-.07-.05,0-.09-.02-.1-.06-.01-.04,.02-.08,.07-.09,.81-.14,1.63-.23,2.45-.29-.11-.15-.16-.32-.12-.51,.04-.19,.16-.34,.32-.44l-.54-.09c-.11-.02-.19-.11-.17-.2,.02-.1,.12-.16,.22-.15l2.2,.34c.91,.02,1.8,.05,2.68,.07-.11-.14-.18-.31-.2-.49h0l-.41-.04c-2.55,.22-5.15,.16-7.7-.33-.05,0-.09-.05-.08-.09,0-.04,.05-.08,.1-.06,.77,.15,1.54,.26,2.32,.33h0s-.03-.08,.01-.11c.03-.02,.09-.02,.12,.01,.03,.04,.02,.08-.01,.1,1.45,.14,2.9,.15,4.34,.06-1.31-.13-2.62-.28-3.91-.55-.15,.03-.3,.07-.45,.1-.04,0-.09-.03-.1-.07,0-.04,.03-.08,.07-.08,.04,0,.08-.02,.13-.02-.24-.05-.41-.26-.37-.49,.05-.23,.28-.38,.54-.33,.69,.05,1.38,.13,2.06,.21h.23l.24-.09c-1.05-.23-2.09-.49-3.12-.76-.09-.01-.16-.09-.15-.17,.01-.08,.09-.14,.18-.13,1.9-.06,3.79-.02,5.69,.07,.66-.27,1.33-.54,1.99-.81l-.24-.04c-2.03-.25-3.89,.52-5.9,.44-.05,0-.09-.04-.09-.08,0-.04,.04-.08,.09-.07,.98,0,1.91-.22,2.89-.33,.82-.09,1.59-.18,2.36-.35-1.51-.09-3.01,.15-4.52,.14-.07,0-.13-.02-.17-.07,0,.02-.02,.04-.04,.05-.2,.09-.41,.14-.63,.17-.04,.01-.09-.01-.1-.06-.02-.04,.01-.07,.06-.09,.21-.03,.41-.08,.6-.17,.03-.01,.07,0,.09,.02,0-.07,.04-.13,.12-.15,1.52-.37,3.09-.39,4.65-.51,.02-.05,.04-.11,.08-.15,.13-.16,.35-.22,.56-.16l.16,.06c.66,.18,1.29,.34,1.97,.52,.14-.06,.31-.1,.48-.09,.6-.15,1.2-.28,1.8-.38-.03-.05-.05-.11-.04-.17,.03-.15,.17-.24,.33-.22l.24,.02c-.22-.06-.44-.12-.68-.19-.03,0-.06-.02-.09-.03-.25-.03-.51-.06-.77-.07-2.27-.12-4.46,.18-6.66,.55-.04,.02-.09,0-.12-.03-.02-.04,0-.08,.04-.1,1.43-.56,2.7-1.39,4.25-1.7,1.85-.37,3.65-.66,5.51-.85,1.9,.19,3.7,0,5.66-.1,2.65-.15,5.13-.03,7.69,.08,.97-.06,1.81,.6,1.89,1.48,.05,.53-.2,1.03-.62,1.35l.24,.02,.37,.12c.35,.12,.64,.35,.82,.66l.24,.38c.32,.72,.86,1.33,1.12,2.07l-.08,.27,.07,.08c.22,.21,.36,.48,.4,.77l-.04,.33c-.06,.38-.19,.73-.39,1.06,0,.14-.03,.28-.08,.41,.14,.35,.2,.71,.06,1.1,.09,.1,.07,.25-.05,.33-.04,.03-.09,.04-.13,.04h0c.05,.09,.06,.12,.13,.22,.09,.03,.15,.06,.15,.06q.24,.07,.46,.14c.18,.12,.29,.29,.29,.29q.18,.6,.14,.86l-.04,.07c.16,.09,.17,.1,.22,.13,.04,.05,.07,.1,.07,.1q0,.14,.03,.19c0,.05,0,.1,0,.1q-.1,.15-.1,.19m-21.37,.04c-1.47-.3-2.94-.57-4.42-.83-.05,0-.08-.05-.07-.08,0-.04,.05-.07,.1-.06,1.48,.25,2.96,.52,4.43,.82,.05,.01,.08,.05,.07,.09-.01,.04-.05,.07-.11,.06m-1.22,32.44c-1.68-.3-1.64-1.16-2.84-1.7-.08,.02-.16,.04-.23,.07-.65-.81-1.23-1.64-1.75-2.49,.03-.07,.06-.14,.09-.21,.48,.35,.96,.69,1.47,1.01-.47-.3-.93-.78-1.33-1.32,.29-.62,.56-.84,.91,.81,.27,.06,.43-.26,.55-.77,.19,.05,.49,.03,1-.11-.1-.11,.27-.63,.67-.92,.05,.06,.1,.12,.16,.16-.07,.36,.1,.68-.39,.95l-.32-.06c.13,.6,.2,.96,.52,1.01,.38-.15,.68-.33,.97-.47,.17,.13,.33,.26,.47,.49-.6,.28-1.53,.33-1.72,.98l1.29,.31-.57,.61c.05,.83,.79,1.1,1.63,1.34-.2,.08-.39,.17-.59,.3m.89-62.75c-.13-.02-.22-.01-.29,0,0-.04-.01-.08,0-.12l.3,.12Zm10.84-40.97c.05-.04,.1-.07,.15-.11,.05,.28,0,.56-.12,.85-.02-.03-.04-.04-.06-.07-.03-.28,.02-.44,.03-.67m-31.47,58.29c-.15,.11-.28,.22-.35,.33,.07-.11,.2-.22,.35-.33m1.77,.38c-.07,.03-.14,.05-.22,.08-.22-.09-.48-.2-.85-.38,.11,.22,.14,.44,.13,.65-.43,.16-.85,.33-1.28,.48,.21,.03,.43,.05,.65,.06-.14,.04-.31,.12-.46,.18-.11-.29-.25-.2-.39,.06-.09-.14-.16-.29-.29-.4-.89-.12,.35,.68-.73,.49-.75-.3,.02-.35-.16-.61-.27,.46-.52,.92-.76,1.39-.06,.02-.12,.03-.17,.05-.04-.02-.08-.03-.12-.06,.37-.83,.69-1.57,.5-1.75,.68-.25,1.34-.52,2.02-.86,.04,.03,.08,.04,.12,.08-.47,.02-.4,.31-.26,.56-.02,.01-.03,.02-.05,.03,.03,.03,.07,.03,.1,.04,.04,.06,.07,.11,.11,.16-.05-.05-.07-.09-.07-.15,.36,.08,.6-.56,.9-.83,.03-.02,.07-.04,.1-.06h.06s-.01-.02-.02-.02c.07-.04,.13-.08,.19-.12-.12,.26,.47,.5,.96,.7-.04,.09-.04,.15,.02,.17,0,0,0,.02-.01,.03m-2.47,5.88c-.03,.11-.07,.23-.13,.37-.32-.07-.64-.14-.97-.2,.01-.02,.02-.04,.03-.06h.02s0,0-.02,0c.06-.13,.13-.26,.19-.38,0,.02,.02,.03,.02,.05l.89-.11s0,.03,0,.05c-.23,.13-.18,.22-.02,.3m-2.32-2.2c.04-.35,.03-.77-.05-1.27,.01-.03,.03-.06,.04-.09,.1,.4,.12,.93,.27,1.27-.08,.04-.17,.07-.26,.1m-.08,.49c.01-.05,.02-.11,.03-.17,.04,0,.08,.01,.13,.02-.05,.05-.11,.11-.16,.15m4.07-6.27s.07,0,.11,0h0s-.04,.04-.07,.06c-.04,0-.07-.01-.1-.02,.02-.01,.04-.03,.05-.04m-7.65-7.34c-.02-.08-.04-.15-.07-.22,.03-.09,.04-.18,.09-.26,.06,.13,.12,.24,.17,.35-.06,.05-.13,.09-.19,.13m-2.1-12.16c-.16-.77,.65-.59,.42-1.29-.14,.07-.25,.18-.34,.31,.15-.26,.31-.51,.47-.74,.05,.02,.11,.05,.16,.07-.05,0-.09,.02-.14,.02,.15,.39,1.34,.12,1.03,.94-.01,.02-.03,.03-.05,.05l-.16-.07,.09,.15c-.11,.17-.18,.37-.18,.65,.12-.04,.25-.1,.38-.17,.02,.23,.09,.47,.27,.74-.74,.43-.97-.4-1.95-.66m-1.31,1.08c.27-.11,.55-.57,.84-1.13,.14-.23,.28-.49,.43-.74-.22,.48-.16,1.13,.27,1.64-.07,.35-.86,.25-1.53,.24m.64,1.83c-.13-.13-.26-.28-.37-.46,.48,.31,.76-.13,1.11,.35-.17,.06-.35,.21-.73,.11m-.71-1.1c.22,.03,.37,.02,.57-.05,.22,.32-.16,.46-.24,.69-.12-.19-.24-.4-.33-.64m-.21-.72s0-.02,0-.03c.02,.02,.05,.02,.07,.03-.02,0-.04,0-.06,0m3.04-3.23s.03,.01,.04,.02c-.1,.07-.21,.17-.34,.27-.12-.17-.24-.33-.13-.37,.1,.11,.24,.13,.42,.08m162.85,26.34l.19,.11c-.66-4.19,2.42-7.22-.03-9.92,.03,.75-.98,2.25-1.45,1.76,.64-.94,.47-3.47,1.19-3.36l.23,.84c.23-2.33,.34-3.68,.1-4.46-.88-.6-1.57,0-2.05-1.55,.58-3.72,2.05,1.51,2.82-1.01l-.22-.84-.11-.42-.03-.1-.02-.25-.05-.43-.25-1.69-.14-.84c-.05-.13,.02-.28-.14-.4l-.09-.41c.2-.53,.48-1.08,.62-1.63-.31-2.57-1.35-4.84-2.55-6.9-.69-1.09-1.19-1.78-1.71-2.37-.52-.59-1.07-1.22-1.6-1.73-2.16-2.15-4.37-3.89-6.37-6.28,.98-.98,4.34,2.2,5.4,3.57-.29-2.45-3.39-3.64-4.43-6.17-1.43-1.98-3.53-2.48-3.85-1.69-2.3-1.83-.8-2.06-.87-2.51-1.73,.31-3.82-2.68-5.66-4.08l.52-.66-3.26-1.8c.59,.71-.53,.67-.9,1.04l-.59-.69c.83,4.04,6.68,4.45,7.23,8.9-.98-.59-.31,.79-1.29,.2-.56-.73-.6-.94-.42-1.23-.88,.07-2.31-.56-.97,.79-1.35,1.14-3.64-1.91-5.9-3.31-.66-2.26,2.72,.33,4.08,.53-.79-.62-1.9-.68-2.6-2.01l1.19-.68c-3.07-2.05-1.52,.12-3.01,.46-1.88,.51-2.24-2.31-3.04-2.92l.99,.52c-1.61-2.34-3.03-1.75-4.77-3.54l-.14-1.57c1.39,3.11,4.08,1.29,4.91,3.04-2.47-4.08,2.61-1.31,4.44-1.07-1.61-1.24-2.82-2.6-3.11-3.89-3.31-.74-4.04-4.66-7.52-5-.99-1.21,1.63,.22,.44-.91-2.14-2.11-4.7-4.04-7.63-5.5-1.23-1.09-.64-1.37-.63-2.1-2.81-2.86-5.37-4.13-8.01-5.41-2.65-1.29-5.37-2.58-8.82-5.45l1.49,.16c-1.46-1.23-2.64-2.3-4.06-2.06-.38-.9-1.24-1.64-2.34-2.28-1.11-.57-2.46-1.01-3.82-1.38-2.74-.68-5.43-1.06-7.08-2.6-1.21-.31-2.18-.45-2.96-.41-.78,.05-1.4,.21-1.98,.41-1.17,.36-2.14,.94-3.94,1.08,0-.52,1.13-1.48-.78-1.74-5.94,.51-11.1,1.61-16.16,3.01-5.05,1.42-9.96,3.21-15.14,5.51,.01-.22,.48-.59,.71-.77-6.97,2.54-12.31,7.7-17.82,9.93-.82,.83-3.48,2.87-2.12,3.16,1.26-.58,1.99,.34,2.27,1.01-3.95,3.48-3.06-.18-5.87,1.91-1.88-.92,1.26-2.16,.46-3.49-1.27,1.19-2.51,2.42-3.73,3.65-2.72,1.08-4.53,3.53-7.05,4.3,1.03-.48-.47-1.29,1.45-1.82-.19,.23,.04,.22-.15,.45,3.63-2.29,1.43-2.04,4.42-4.47-2.6,2.19-6.09,5.15-8.71,6.68,1.24,.56-1.64,1.88-1.84,3.02l-.22,.02c.32,.4-.91,1.86-1.26,2.34l-1.56-.71c-.89,1.02,.78,.35-.11,1.36-1.24,1.41-6.17,6.32-7.62,5.65-.79,.92-1.14,1.65-1.52,2.37-.35,.75-.73,1.47-1.61,2.37-.18-.41,.08-.98-.01-1.18-1.87,1.93-3.64,4.4-5.29,6.93-.81,1.28-1.66,2.52-2.39,3.8-.77,1.25-1.56,2.44-2.29,3.59-.75,2.06-1.27,4.04-1.65,5.83-.29,1.83-.47,3.47-.23,4.93,.09-1.19,1.43-4.28,1.68-2.04,.14,.62,.06,1.34-.06,2.13-.11,.79-.34,1.62-.32,2.51-.72-.57-1.47,4.29-1.46,.7-.96,.29-1.15,2.26-1.21,4.1-.05,1.85,.03,3.57-.83,3.55,.26,.44,.32,1.98,.57,3.67l.1,.64,.05,.32,.04,.17c.05,.22,.1,.44,.18,.65,.07,.17,.15,.51,.24,.77,.09,.27,.2,.5,.33,.7-.37,.2-.53-.38-.66-.99-.06-.36-.12-.47-.2-.65-.07-.16-.16-.26-.29-.25l.16,.63,.17,.94-.52,.02c-.15,1.83,.37,3.11,.94,4.01,.58,.94,1.28,1.68,1.55,2.84l-.21-.07,.43,1.57-1.58-1.75c.21,1.28,.68,2.22,1.2,3.18,.52,.96,1,1.94,1.38,3.32l-.39,.35,.79,1.61c-.13-.27-.35-.33-.43-.12,.82,.68,1.2,1.95,1.69,3.18,.48,1.23,.93,2.46,1.65,3.04,.05,1.13-1.25,2.5,.27,3.63l-1.66,.2c-.66-1.8-.47-2.22-.32-2.66,.14-.43,.23-.87-.53-2.74-.35,.84-.47,1.98-.42,3.31,.08,1.32,.38,2.8,.76,4.35,.2,.77,.38,1.57,.65,2.35,.29,.77,.57,1.54,.86,2.31,.61,1.51,1.15,3,1.77,4.25,.72,.92,1.35,2.07,1.95,3.29,.59,1.22,1.12,2.53,1.8,3.68,1.27,2.32,2.56,4.28,4.07,4.48l-1.09,.1c1.04,2.3,2.23,4.52,3.37,6.8,1.96,2.53,3.94,5.1,5.81,7.51,1.97,2.31,4.04,4.29,6.12,5.62l.28,1.56c2.77,.79,5.99,3.46,9.12,5.9,3.28,2.24,6.43,4.28,8.69,3.95,1.64,2.33-1.42,.5-2.01,.79,1.35,1.57,5.51,1.74,6.18,4.14-.29,.43-2.62-1.31-1.75-.27,.65,1.69,2.3,.45,3.13,2.28-.05-1.27,3.41-.28,5.7,.72q-.38-.27-.49-.47c.07-.84,1.59,.21,2.53,.61,0,0-.18,.13-.45,.07,1.46,.67,3.02,1.2,4.55,1.83,1.54,.59,3.16,1.09,4.74,1.66,3.26,.95,6.57,1.91,10,2.48,6.82,1.3,13.9,1.5,20.68,.82l-2.39,1.1c1.89-.8,5.35-1.07,6.49-1.2l-.26,.15c1.99,.3,2.92-.36,3.68-1,.79-.61,1.43-1.18,3.08-.84l-.47,.35c2.09-.79,3.86-1.16,5.61-1.66,1.73-.51,3.42-1.2,5.07-2.73,.27-.12,.52-.21,.75-.29,0,.03-.01,.05-.01,.08,.48-.08,.7-.2,.8-.35,.58-.17,1.02-.25,1.41-.29-.11,.21-.24,.42-.36,.64-.76,1.23-1.61,2.39-.25,2.23,1.83-.53,1-1.65,1.51-2.95,.53-.06,1.11-.15,1.98-.47,.82-.65,1.26-1.32,1.5-1.86,.18-.12,.36-.24,.54-.34,.11,.02,.23,.01,.39-.03-.03-.06-.05-.11-.07-.16,.7-.42,1.31-.73,1.92-1.03l.2,.12c.02-.08,.02-.16,.03-.24,.46-.23,.93-.46,1.44-.74,.14,.4,.32,.74,.63,.89l-.07-1.02,.89,.36-.06,.12c.24-.44,1-.52,1.24-.06,.12,.39-.27,.59-.16,.99,.08-.41,.59-.39,1.17-.34-.14,.78-.57,1.62-2.25,3.24,.44,.93-2.24,3.67-4.78,5.06l1.66-.06c-1.46,3.13-1.23-.82-3.61,2.52-2.37-.62-5.86-1.01-4.86-3.36-2.43,.95-2.73,2.21-4.89,3.26-1.92-.74-.03-1.77-.94-2.99-1.35,.86-3.05,2.16-1.61,2.51-1.06,.22-2.13,.33-3.17,.39-.15-.28,.9-.56,1.32-.66-.62,.04-1.4,.35-2.15,.7-.75,.34-1.48,.69-1.85,.98,.28-.09,1.05-.35,1.42-.18-.63,.31-1.58,.61-2.5,.78-.92,.17-1.8,.09-1.99,.25,.68,.04,1.12,.16,1.51,.25,.39,.12,.7,.27,1.02,.38,.33,.13,.66,.24,1.06,.22,.41,0,.86-.12,1.39-.44-.13,.41-.42,1.32-1.82,1.16,1.09,.42,2.21,.47,3.08,.47,.91,.02,1.62,0,2.19,.37-1.82-.23-2.73,1.02-3.17,1.23,.92,.04,2.13-.25,3.17-.65,1.03-.41,1.89-.93,2.26-1.31,.42,.75,1.72,.13,2.69-.42,.98-.54,1.7-1,1.27,.19,0-.67,1.78-1.65,2.87-1.85,.3,.69-1.87,2.36-2.62,3.67-5.07,3.2-.38-1.17-1.88-1.06-1.3,.64-2.67,1.25-4.18,1.76,.27,.04-.1,.47-.2,.75-.09,.28,.2,.45,1.69-.11-.52,.73-1.49,1.54-2.92,2.07-1.36,.54-3.31,.77-5.29,.24-.48,.21,.01,.35,.76,.43,.69,.05,1.56,0,1.96-.02-.38,.27-1.65,.92-2.33,1.41-.31,.25-.38,.51,.1,.75,.26,.12,.6,.22,1.09,.27,.47,.05,1.19,.1,1.9,.03-.85,.06-.15-.22,.35-.55,.5-.34,.79-.69-.67-.79,1.15-.21,3.02-.46,4.26-.56,1.26-.09,2.06,.05,1.29,.8,1.04-.48,2.36-1.24,3.49-2.01,1.15-.76,2.14-1.52,2.75-1.95,.73,.48-.97,.88-1.54,1.53,1.58-.92,3.02-1.86,4.38-2.84l-1.66-.02c3.51-1.3,4.27-4.24,6.15-6.27,.46,1.3-1.35,2.71-2.57,4.28,2.37,.39,.55-1.33,3.06-2.75,.46-.02,.72,.19,.8,.63,.4-.76,.8-1.51,1.18-2.27,.48-.2,.51,.02,.42,.24,1.98-3.2-1.19-1.33,2.4-4.85-2.82,1.33-1.48,2.32-3.66,3.77-1.76,.1,1.38-3.14,1.59-4.04,2.12-1.25,3.62,.14,5.34-2.69-1.29,1.9,.74,1.03-1.68,3.04-.95,1.63,1.1-.11,1.87,.25,.49-.72-1.32-.74,.6-2.06l.06,.21c.66-1.18,1.3-2.36,1.93-3.55,1.57-.9,2.74-2.47,3.93-4.06,.28-.39,.57-.78,.86-1.14,.1,.07,.19,.14,.24,.23,.16-.42,.55-.81,1.14-1.06-.32,.05-.49-.03-.59-.16,.08-.1,.17-.21,.25-.31,.56-.67,1.17-1.19,1.89-1.46l-1.49-.4c.46-.63,.95-1.34,1.43-2.07,.38-.02,.75-.04,.97-.19-.28,.13-.54,.05-.77-.11,.25-.38,.49-.76,.72-1.13,.11,.03,.23,.04,.36,.02,.28-.51,.64-.91,1.03-1.25-.19,.65-.58,1.41-.98,2.24,.78-1,1.41-2.02,1.94-3.03,.05-.04,.11-.08,.16-.13,.73-.6,1.34-1.23,1.29-2.27l-.42,.03c.36-1.02,.62-2.01,.78-2.95,.19,.1,.36,.23,.43,.35,.08-.32,.18-.65,.24-.97,.25,.33,.74,.54,.98,.88,.02-.01,.02-.03,.04-.04-.48,1.31-.9,2.58-2.01,3.24l1.4-.67c-.99,2.44-2.08,3.65-2.8,5.9l-.12-.19c.17,.57,.3,1.15,.44,1.74,.24-.35,.52-.7,.74-1.05,.14,1.15-.42,4.09-.96,4.82,2.35-3.49,.65-4.93,.63-7.1,.99-1.4,2.11-2.07,3.05-2.71,.94-.64,1.69-1.26,1.72-2.52,.65,.17,2.18-1.14,1.95,.48-.59,1.82-2.05,2.53-1.35,3.17,1.01-1.74,1.11-.8,2.47-3.52-.75-1.09-.69-3.62-.57-5.93,.46-2.26,1.76-4.77,2.84-6.19-.83,2.04-.81,4.52,.24,4.43-.53-1.71,2.83-3.47,.98-3.64,1.24-2.27,2.95-6.28,4.42-5.96-.47,2.5-2.29,4.3-2.9,6.32,.27-.51,.86-.86,1.03-.4-.49,.91-.96,1.82-1.48,2.72,1.69-1.78,1.9-1.17,3.04-3.96-.19,.12-.57,.36-.52,.07,.29-.69,.74-1.52,1-2.23l1.29,.47c.32-2.32,3.66-5.67,4.17-10.03l.13,.45c1.45-3.06-1.04-4.27-.2-7.81,.29,1.2,.98,.91,1.65,.92-.11-1.99,1.23-2.63,2.11-4.37-1.37,1.91-1-1.81-1.85-.38-.67-.12-.77-1.13-.64-2.35,.14-1.22,.53-2.62,.78-3.66,.97-.47,.96,1.25,.86,2.58-.07,1.36-.09,2.52,1.15,1.23,.64-1.98-.23-2.67-.88-1.35,.42-1.18,.77-2.89,1.27-4.41,.26-.82,.46-1.38,.72-1.97,.26-.57,.54-1.06,.87-1.44-.95-2.91-.09-3.92-1.61-5.88-.09,1.48,1.14,1.72,.23,3.47l-1.02-2.17c.23-2.66,1.57-4.67,1.89-6.55l.39,2.02-.19-.12c.49,.81-.1,3.29,.89,3.11-1-1.89,.31-3.18-.34-5.62"/></g></g></svg>